<svg width="12" height="15" viewBox="0 0 12 15" fill="none" xmlns="http://www.w3.org/2000/svg">
<path d="M11.4286 11.7768C11.4286 9.42857 10.8482 6.71428 8.50893 6.71428C7.78571 7.41964 6.80357 7.85714 5.71429 7.85714C4.625 7.85714 3.64286 7.41964 2.91964 6.71428C0.580357 6.71428 0 9.42857 0 11.7768C0 13.0804 0.857143 14.1429 1.90179 14.1429H9.52679C10.5714 14.1429 11.4286 13.0804 11.4286 11.7768ZM9.14286 3.85714C9.14286 1.96428 7.60714 0.428571 5.71429 0.428571C3.82143 0.428571 2.28571 1.96428 2.28571 3.85714C2.28571 5.75 3.82143 7.28571 5.71429 7.28571C7.60714 7.28571 9.14286 5.75 9.14286 3.85714Z" fill="#18B9BB"/>
</svg>
