<svg width="55" height="60" viewBox="0 0 55 60" fill="none" xmlns="http://www.w3.org/2000/svg">
<path d="M38.7567 29.9552C36.8663 29.9552 35.066 29.2268 33.6258 27.77C30.4752 24.5833 29.665 19.2114 29.665 16.4799C29.665 15.6605 29.7551 14.9321 29.9351 14.1126C30.1151 13.2932 31.0153 12.7469 31.7354 13.02C32.5456 13.2021 33.0857 14.0216 32.8156 14.841C32.6356 15.3873 32.6356 15.9336 32.6356 16.4799C32.6356 19.4845 33.7158 23.5818 35.6961 25.5848C36.5963 26.4953 37.4965 26.8595 38.6667 26.8595C43.2575 26.8595 44.7878 19.6666 44.7878 16.4799C44.7878 15.9336 44.6978 15.3873 44.6078 14.841C44.4277 14.0216 44.8778 13.2021 45.688 13.02C46.4981 12.8379 47.3082 13.2932 47.4883 14.1126C47.6683 14.9321 47.7583 15.7515 47.7583 16.4799C47.9384 22.0339 45.0578 29.8642 38.7567 29.9552Z" fill="#18B9BB"/>
<path d="M18.5929 35.2361C18.5029 35.2361 18.4129 35.2361 18.2329 35.2361C17.8728 35.3271 17.5127 35.5092 17.2427 35.8734L16.3425 37.1481L21.5635 40.8812L21.9235 41.1543C22.5537 41.6095 23.3638 41.5185 23.9039 40.9722C24.534 40.2438 25.1641 39.4244 25.8843 38.5139C27.6846 36.1466 29.665 33.5062 32.0954 33.3241C36.0561 32.9599 37.1363 29.3179 37.4064 28.1342C37.5864 27.3148 37.1363 26.4954 36.3262 26.2222C35.516 25.9491 34.7059 26.4954 34.4358 27.2237C33.8057 29.5 32.9055 30.0463 31.7353 30.1373C27.9546 30.4105 25.4342 33.7793 23.3638 36.6018C23.0938 37.0571 22.7337 37.4213 22.4636 37.7855L20.1232 36.0555L19.6731 35.7824L18.5929 35.2361Z" fill="#18B9BB"/>
<path d="M22.5537 49.804C20.9334 49.804 19.5831 49.1667 18.5029 47.9831L14.0021 42.5201C13.462 41.8827 13.552 40.8812 14.1821 40.3349C14.8122 39.7886 15.8024 39.8797 16.3425 40.517L20.8433 45.8889C21.2934 46.4352 21.8335 46.6173 22.5537 46.6173C23.2738 46.6173 23.8139 46.3442 24.1739 45.7979L29.755 39.0602C30.2951 38.4229 31.2852 38.3318 31.9154 38.8781C32.5455 39.4244 32.6355 40.426 32.0954 41.0633L26.5144 47.801C25.5242 49.1667 24.0839 49.804 22.5537 49.804Z" fill="#18B9BB"/>
<path d="M53.3394 49.804C52.5292 49.804 51.8091 49.0756 51.8091 48.2562V37.8766C51.8091 35.4182 49.8287 33.5062 47.4883 33.5062C46.6781 33.5062 45.958 32.7778 45.958 31.9584C45.958 31.1389 46.6781 30.4105 47.4883 30.4105C51.539 30.4105 54.8696 33.7793 54.8696 37.8766V48.2562C54.8696 49.1667 54.1495 49.804 53.3394 49.804Z" fill="#18B9BB"/>
<path d="M47.4882 33.5062C42.0872 33.5062 41.097 31.5941 40.1968 28.4985L40.1068 28.1343C39.8368 27.3148 40.2869 26.4954 41.097 26.2222C41.9072 25.9491 42.7173 26.4043 42.9874 27.2238L43.0774 27.588C43.7975 29.9553 43.8875 30.4105 47.3981 30.4105C48.2083 30.4105 48.9284 31.1389 48.9284 31.9583C49.0184 32.7778 48.2983 33.5062 47.4882 33.5062Z" fill="#18B9BB"/>
<path d="M50.0985 19.3024C49.4684 19.3024 48.9283 18.9382 48.7483 18.3919C48.3882 17.5725 48.7483 16.7531 49.5584 16.3889C51.2688 15.6605 52.0789 14.75 52.0789 14.2947C52.0789 12.929 47.3981 10.2885 38.8465 10.2885C30.2949 10.2885 25.6141 12.929 25.6141 14.2947C25.6141 14.841 26.4242 15.6605 28.1346 16.3889C28.9447 16.7531 29.3048 17.6636 28.9447 18.3919C28.5846 19.2114 27.6845 19.5756 26.9643 19.2114C23.1837 17.5725 22.6436 15.3873 22.6436 14.2947C22.6436 9.6512 30.835 7.19287 38.9365 7.19287C47.038 7.19287 55.2295 9.6512 55.2295 14.2947C55.2295 15.4784 54.6894 17.5725 50.9087 19.2114C50.4586 19.2114 50.2786 19.3024 50.0985 19.3024Z" fill="#18B9BB"/>
<path d="M47.0382 11.108C46.228 11.108 45.5979 10.4707 45.5079 9.65124C45.4179 6.00926 42.4473 3.09568 38.7567 3.09568C35.066 3.09568 32.0955 6.00926 32.0054 9.65124C32.0054 10.4707 31.2853 11.108 30.4752 11.108C30.4752 11.108 30.4752 11.108 30.3851 11.108C29.575 11.108 28.8549 10.3796 28.9449 9.56019C29.2149 4.18827 33.4457 0 38.7567 0C44.0676 0 48.3884 4.18827 48.5685 9.56019C48.5685 10.3796 47.9383 11.108 47.0382 11.108C47.1282 11.108 47.0382 11.108 47.0382 11.108Z" fill="#18B9BB"/>
<path d="M16.6126 34.1435C15.8024 34.1435 15.0823 33.4151 15.0823 32.5957V13.2021C15.0823 12.3827 15.8024 11.6543 16.6126 11.6543C17.4227 11.6543 18.1428 12.3827 18.1428 13.2021V32.5957C18.1428 33.5061 17.4227 34.1435 16.6126 34.1435Z" fill="#18B9BB"/>
<path d="M1.57987 21.0324C0.949752 21.0324 0.409653 20.6682 0.139604 20.1219C-0.220461 19.3025 0.229621 18.483 0.949752 18.1188L15.9825 11.8364C16.7926 11.4722 17.6028 11.9275 17.9628 12.6559C18.3229 13.4753 17.8728 14.2948 17.1527 14.659L2.11996 20.8503C1.93993 20.9414 1.7599 21.0324 1.57987 21.0324Z" fill="#18B9BB"/>
<path d="M16.6126 27.3148C16.4325 27.3148 16.2525 27.3148 16.0725 27.2238L0.949719 20.8503C0.139572 20.4861 -0.220493 19.6667 0.139572 18.8472C0.499638 18.0278 1.30978 17.6636 2.11993 18.0278L17.1527 24.3102C17.9628 24.6744 18.3229 25.4938 17.9628 26.3133C17.7828 26.9506 17.2427 27.3148 16.6126 27.3148Z" fill="#18B9BB"/>
<path d="M48.1182 57.4521V40.2438C48.1182 39.5154 47.5781 38.787 46.8579 38.696C45.8678 38.5139 45.0576 39.2423 45.0576 40.2438V57.5432C45.0576 58.3626 45.7777 59.091 46.5879 59.091C47.398 59 48.1182 58.2716 48.1182 57.4521Z" fill="#18B9BB"/>
<path d="M32.4553 57.4521V40.2438C32.4553 39.5154 31.9152 38.787 31.1951 38.6049C30.2049 38.4228 29.3948 39.1512 29.3948 40.1527V57.4521C29.3948 58.2716 30.1149 59 30.9251 59C31.8252 59 32.4553 58.2716 32.4553 57.4521Z" fill="#18B9BB"/>
<path d="M14.5422 43.0663L16.4325 40.7901C16.1625 40.4259 15.9824 40.0617 15.9824 39.6064C15.9824 38.787 16.6125 38.2407 17.3327 38.2407C17.6927 38.2407 17.9628 38.3317 18.2328 38.5138L20.2132 36.1465C19.4031 35.5092 18.4129 35.054 17.3327 35.054C14.9022 35.054 12.9219 37.057 12.9219 39.5154C12.9219 40.9722 13.552 42.1558 14.5422 43.0663Z" fill="#18B9BB"/>
</svg>
