<svg width="18" height="18" viewBox="0 0 18 18" fill="none" xmlns="http://www.w3.org/2000/svg">
    <path d="M9 0C4.02439 0 0 4.02439 0 9C0 13.9756 4.02439 18 9 18C13.9756 18 18 13.9756 18 9C18 4.02439 13.939 0 9 0ZM13.5 12.4024C13.2439 12.7317 12.878 12.9146 12.4756 12.9146C12.2195 12.9146 11.9268 12.8415 11.7073 12.6585L8.23171 10.0244C7.86585 9.73171 7.68293 9.32927 7.71951 8.89024C7.71951 8.85366 7.71951 8.81707 7.71951 8.81707V4.28049C7.71951 3.58537 8.30488 3 9 3C9.69512 3 10.2805 3.58537 10.2805 4.28049V8.34146L13.2805 10.5732C13.8293 11.0122 13.939 11.8171 13.5 12.4024Z" fill="#C1C1C1"/>
</svg>
