<svg width="55" height="49" viewBox="0 0 55 49" fill="none" xmlns="http://www.w3.org/2000/svg">
<path d="M51.5625 21.0625L41.25 27.9375C41.25 25.8509 40.3013 24.005 38.8334 22.7434C42.3276 20.638 44.6875 16.8447 44.6875 12.4688C44.6875 5.824 39.3009 0.4375 32.6562 0.4375C26.0116 0.4375 20.625 5.82409 20.625 12.4688C20.625 15.8392 22.0189 18.878 24.2533 21.0625H17.9489C19.5955 19.2355 20.625 16.8412 20.625 14.1875C20.625 8.49158 16.0084 3.875 10.3125 3.875C4.61658 3.875 0 8.49158 0 14.1875C0 17.295 1.40421 20.0484 3.57842 21.9391C1.45579 23.1095 0 25.3422 0 27.9375V41.6875C0 45.4842 3.07829 48.5625 6.875 48.5625H34.375C38.1717 48.5625 41.25 45.4842 41.25 41.6875V39.9688L51.5625 48.5625C53.4617 48.5625 55 47.0242 55 45.125V24.5C55 22.6008 53.4617 21.0625 51.5625 21.0625ZM3.4375 14.1875C3.4375 10.3908 6.51579 7.3125 10.3125 7.3125C14.1092 7.3125 17.1875 10.3908 17.1875 14.1875C17.1875 17.9842 14.1092 21.0625 10.3125 21.0625C6.51579 21.0625 3.4375 17.9842 3.4375 14.1875ZM37.8125 41.6875C37.8125 43.585 36.2742 45.125 34.375 45.125H6.875C4.97579 45.125 3.4375 43.5867 3.4375 41.6875V27.9375C3.4375 26.0383 4.97579 24.5 6.875 24.5H34.375C36.2742 24.5 37.8125 26.0383 37.8125 27.9375V41.6875ZM32.6562 21.0814C27.8988 21.0814 24.0436 17.2245 24.0436 12.4688C24.0436 7.71125 27.9005 3.85613 32.6562 3.85613C37.412 3.85613 41.2689 7.71125 41.2689 12.4688C41.2689 17.2262 37.4137 21.0814 32.6562 21.0814ZM51.5625 45.125L41.25 36.5312V31.375L51.5625 24.5V45.125Z" fill="#18B9BB"/>
</svg>
