<svg width="30" height="30" viewBox="0 0 30 30" fill="none" xmlns="http://www.w3.org/2000/svg">
<path fill-rule="evenodd" clip-rule="evenodd" d="M24.1476 26.8888C21.6158 28.8397 18.4434 30 15 30C11.5566 30 8.38418 28.8397 5.8524 26.8888C7.82571 23.9409 11.1862 22 15 22C18.8138 22 22.1743 23.9409 24.1476 26.8888ZM25.6582 25.5547C23.3078 22.1963 19.4104 20 15 20C10.5896 20 6.69222 22.1963 4.34179 25.5547C1.65767 22.8445 0 19.1158 0 15C0 6.71573 6.71573 0 15 0C23.2843 0 30 6.71573 30 15C30 19.1158 28.3423 22.8445 25.6582 25.5547ZM15 16C17.7614 16 20 13.7614 20 11C20 8.23858 17.7614 6 15 6C12.2386 6 10 8.23858 10 11C10 13.7614 12.2386 16 15 16ZM15 18C18.866 18 22 14.866 22 11C22 7.13401 18.866 4 15 4C11.134 4 8 7.13401 8 11C8 14.866 11.134 18 15 18Z" fill="white"/>
</svg>
