<svg width="88" height="51" viewBox="0 0 88 51" fill="none" xmlns="http://www.w3.org/2000/svg">
<path d="M3.97108 11.6397C4.05019 11.4147 4.29193 8.0269 8.1816 6.25128C8.16428 6.14755 9.38586 3.71969 12.4009 3.57026C12.3836 3.46653 13.3766 1.82979 17.1476 1.68915C17.2443 1.56785 19.0024 0.0541701 21.0505 0.883088C21.25 0.752993 22.958 -0.321172 24.5666 0.44973C24.7828 0.423359 26.0082 -0.156795 26.9487 0.484364C27.1483 0.354268 28.109 0.232963 28.6892 0.596878C29.01 0.553543 29.7792 0.68355 30.5088 1.3502C30.7338 1.42931 32.5393 1.0988 33.4447 3.26647C33.9642 3.0933 36.0026 2.95442 36.6795 4.92782C37.0258 5.10099 38.4463 5.24866 38.965 7.67916C39.3895 7.62721 41.224 8.48522 41.0746 10.7733C41.6381 10.921 42.3492 11.4853 42.3228 12.9972C42.7729 13.1616 44.1688 13.9554 43.4304 15.8892C43.7767 16.0624 44.7313 18.5439 42.3316 19.2647C42.7131 19.7587 46.0235 22.9302 41.5783 26.3935C41.6476 26.9306 41.4139 32.1423 35.6537 31.0084C35.4374 31.0348 32.0057 33.4609 28.9379 29.2328C28.7217 29.2592 26.1339 28.3836 25.6065 26.7188C25.1388 27.3165 23.1716 30.692 18.0996 29.9096C17.4324 29.7707 13.977 28.8988 12.676 24.5124C12.676 24.5124 9.88075 28.2131 4.98459 26.2089C4.64705 26.0358 -0.992756 23.2642 1.9256 17.0671C1.89791 16.8579 1.21183 13.9114 3.97372 11.6348L3.97108 11.6397Z" stroke="white" stroke-width="0.175804" stroke-miterlimit="10" stroke-linecap="round" stroke-linejoin="round"/>
<path d="M14.0886 27.5509L17.1828 26.8547L16.3917 23.6902L20.5231 26.0636L23.1426 29.0259M28.6892 0.605353V3.78741L26.4037 7.62874L20.4264 5.65094L18.4925 4.7016L28.6892 0.605353ZM15.6621 1.84477L15.764 2.87323L15.6621 1.84477ZM8.67034 5.44876L9.98887 5.73269L11.0964 3.79884L8.67034 5.44876ZM9.37356 4.7306L9.99415 5.7239L4.48268 18.6455L4.553 24.9745L9.37356 4.7306ZM1.13361 19.6037L4.48268 18.6455L9.29972 26.6095L1.13361 19.6037ZM1.68739 17.5555L4.48268 18.6279L12.0686 17.1336L16.5517 23.6384L13.1235 25.6953L1.68739 17.5555ZM9.29972 26.5919L4.553 24.9569L1.24788 21.8012L9.29972 26.5919ZM2.13569 23.7351L4.553 24.9569L4.34292 25.8113L2.13569 23.7351ZM20.3411 0.671279L18.4688 4.67962L15.7438 2.85125L9.97745 5.70808L8.15787 6.23373L20.3411 0.671279ZM20.9916 0.862906L18.4336 4.67786L18.2578 8.58951L9.94229 5.70632L12.0168 17.1336L16.6756 10.8925L23.2683 10.6288L18.2578 8.57193L16.6756 10.8925L18.5215 21.1771L22.565 13.7054L16.6756 10.8925L9.94229 5.68874L5.24831 8.44008L20.9916 0.862906ZM21.7739 0.440976L20.3587 5.60963L23.2595 10.6288L22.5563 13.7054L28.7094 15.1998L30.2916 7.32372L26.336 7.58742L23.2595 10.6288L28.7094 15.1998L26.336 7.58742L21.7739 0.440976ZM30.4411 1.31121L30.9949 3.67578L34.5989 3.98343L30.4411 1.31121ZM33.0781 2.64732L30.9949 3.67578L33.377 3.23099L33.0781 2.64732ZM36.3393 4.31219L34.5989 3.98607L30.2916 7.32636L37.2359 17.9625L37.9391 22.006L35.3021 23.7641L36.3393 4.31219ZM30.2916 7.32636L35.39 12.0379L34.3176 13.374L30.2916 7.32636ZM18.8468 0.71611L15.6823 2.84334L18.2315 8.58336L20.3411 5.62105L28.6039 3.75753L30.9773 3.6872L30.2741 7.33515L28.6039 3.75753L24.6659 0.373291L18.8468 0.71611ZM41.631 11.0974L35.4076 12.0643L37.2535 17.9537L42.7034 21.6456L41.631 11.0974ZM42.9223 18.9822L42.176 13.5586L35.4076 12.0643L34.6164 4.01244L40.963 9.79641L42.9223 18.9822ZM43.5649 14.4992L42.176 13.5586L42.7184 13.2255L43.5649 14.4992ZM42.176 13.5586L37.2535 17.9537L35.3197 23.7553L42.176 13.5586ZM42.0442 25.9616L42.7052 21.6456L42.0442 25.9616ZM43.7688 23.1927L42.7052 21.6456L43.7688 23.1927ZM43.3917 20.8317L42.7052 21.6456L43.3917 20.8317ZM42.9021 20.0194L42.7052 21.6456L37.9585 21.9972L40.5692 29.592L42.9021 20.0194ZM40.2703 29.9489L35.3214 23.7518L40.2703 29.9489ZM36.7278 31.1443L35.3214 23.7518L32.4206 23.3123L30.5747 23.9276L36.7278 31.1443ZM36.7278 31.1443L32.4206 23.3123L30.8384 24.9824L36.7278 31.1443ZM34.9786 31.2938L30.8384 24.9824L34.9786 31.2938ZM36.7278 31.1443L30.8384 24.9824L36.7278 31.1443ZM29.9655 30.4411L30.8384 24.9824L28.2892 24.1913L28.7287 15.2252L37.2553 17.9502L32.4206 23.3123L28.7287 15.2252L34.3369 13.3969L29.9655 30.4411ZM28.5529 29.1314L28.2936 24.1825L30.5791 23.9188L28.5529 29.1314ZM12.8228 25.1494L16.4884 23.6551L18.5101 21.1938L12.0054 17.1503L9.23643 26.6437L12.8228 25.1494ZM18.4662 21.229L20.5758 26.0636L28.2233 24.2176L18.4662 21.229L28.6628 15.2516L30.7725 25.0088L18.4662 21.229ZM21.3669 29.7994L19.477 28.1732L21.3669 29.7994ZM18.3958 29.984L17.1916 26.8547L20.5319 26.0636L18.6859 30.0104L18.3958 29.984ZM15.6181 28.9292L17.1828 26.8547L19.4682 28.1732L15.6181 28.9292Z" stroke="white" stroke-width="0.0879022" stroke-miterlimit="10" stroke-linecap="round" stroke-linejoin="round"/>
<path d="M4.48971 19.5508C4.97518 19.5508 5.36873 19.1572 5.36873 18.6717C5.36873 18.1863 4.97518 17.7927 4.48971 17.7927C4.00424 17.7927 3.61069 18.1863 3.61069 18.6717C3.61069 19.1572 4.00424 19.5508 4.48971 19.5508Z" fill="white" stroke="white" stroke-width="0.0879022" stroke-miterlimit="10" stroke-linecap="round" stroke-linejoin="round"/>
<path d="M12.0757 17.9687C12.5126 17.9687 12.8668 17.6145 12.8668 17.1776C12.8668 16.7407 12.5126 16.3865 12.0757 16.3865C11.6387 16.3865 11.2845 16.7407 11.2845 17.1776C11.2845 17.6145 11.6387 17.9687 12.0757 17.9687Z" fill="white" stroke="white" stroke-width="0.0879022" stroke-miterlimit="10" stroke-linecap="round" stroke-linejoin="round"/>
<path d="M16.5587 24.4734C16.9956 24.4734 17.3498 24.1192 17.3498 23.6822C17.3498 23.2453 16.9956 22.8911 16.5587 22.8911C16.1217 22.8911 15.7675 23.2453 15.7675 23.6822C15.7675 24.1192 16.1217 24.4734 16.5587 24.4734Z" fill="white" stroke="white" stroke-width="0.0879022" stroke-miterlimit="10" stroke-linecap="round" stroke-linejoin="round"/>
<path d="M20.6901 26.9346C21.1756 26.9346 21.5691 26.541 21.5691 26.0555C21.5691 25.5701 21.1756 25.1765 20.6901 25.1765C20.2046 25.1765 19.8111 25.5701 19.8111 26.0555C19.8111 26.541 20.2046 26.9346 20.6901 26.9346Z" fill="white" stroke="white" stroke-width="0.0879022" stroke-miterlimit="10" stroke-linecap="round" stroke-linejoin="round"/>
<path d="M18.5804 22.0122C19.0173 22.0122 19.3715 21.658 19.3715 21.2211C19.3715 20.7841 19.0173 20.4299 18.5804 20.4299C18.1435 20.4299 17.7893 20.7841 17.7893 21.2211C17.7893 21.658 18.1435 22.0122 18.5804 22.0122Z" fill="white" stroke="white" stroke-width="0.0879022" stroke-miterlimit="10" stroke-linecap="round" stroke-linejoin="round"/>
<path d="M16.7345 11.7275C17.1714 11.7275 17.5256 11.3733 17.5256 10.9364C17.5256 10.4995 17.1714 10.1453 16.7345 10.1453C16.2976 10.1453 15.9434 10.4995 15.9434 10.9364C15.9434 11.3733 16.2976 11.7275 16.7345 11.7275Z" fill="white" stroke="white" stroke-width="0.0879022" stroke-miterlimit="10" stroke-linecap="round" stroke-linejoin="round"/>
<path d="M22.6239 14.5405C23.0609 14.5405 23.4151 14.1863 23.4151 13.7494C23.4151 13.3124 23.0609 12.9583 22.6239 12.9583C22.187 12.9583 21.8328 13.3124 21.8328 13.7494C21.8328 14.1863 22.187 14.5405 22.6239 14.5405Z" fill="white" stroke="white" stroke-width="0.0879022" stroke-miterlimit="10" stroke-linecap="round" stroke-linejoin="round"/>
<path d="M9.96602 6.54147C10.4029 6.54147 10.7571 6.18727 10.7571 5.75035C10.7571 5.31342 10.4029 4.95923 9.96602 4.95923C9.52909 4.95923 9.1749 5.31342 9.1749 5.75035C9.1749 6.18727 9.52909 6.54147 9.96602 6.54147Z" fill="white" stroke="white" stroke-width="0.0879022" stroke-miterlimit="10" stroke-linecap="round" stroke-linejoin="round"/>
<path d="M18.3167 9.40695C18.7536 9.40695 19.1078 9.05275 19.1078 8.61583C19.1078 8.1789 18.7536 7.82471 18.3167 7.82471C17.8798 7.82471 17.5256 8.1789 17.5256 8.61583C17.5256 9.05275 17.8798 9.40695 18.3167 9.40695Z" fill="white" stroke="white" stroke-width="0.0879022" stroke-miterlimit="10" stroke-linecap="round" stroke-linejoin="round"/>
<path d="M28.7771 16.1228C29.2626 16.1228 29.6561 15.7292 29.6561 15.2438C29.6561 14.7583 29.2626 14.3647 28.7771 14.3647C28.2916 14.3647 27.8981 14.7583 27.8981 15.2438C27.8981 15.7292 28.2916 16.1228 28.7771 16.1228Z" fill="white" stroke="white" stroke-width="0.0879022" stroke-miterlimit="10" stroke-linecap="round" stroke-linejoin="round"/>
<path d="M28.3376 25.0009C28.7745 25.0009 29.1287 24.6467 29.1287 24.2098C29.1287 23.7729 28.7745 23.4187 28.3376 23.4187C27.9006 23.4187 27.5464 23.7729 27.5464 24.2098C27.5464 24.6467 27.9006 25.0009 28.3376 25.0009Z" fill="white" stroke="white" stroke-width="0.0879022" stroke-miterlimit="10" stroke-linecap="round" stroke-linejoin="round"/>
<path d="M32.469 24.1218C32.9059 24.1218 33.2601 23.7676 33.2601 23.3307C33.2601 22.8937 32.9059 22.5396 32.469 22.5396C32.0321 22.5396 31.6779 22.8937 31.6779 23.3307C31.6779 23.7676 32.0321 24.1218 32.469 24.1218Z" fill="white" stroke="white" stroke-width="0.0879022" stroke-miterlimit="10" stroke-linecap="round" stroke-linejoin="round"/>
<path d="M38.0068 22.8032C38.4437 22.8032 38.7979 22.449 38.7979 22.0121C38.7979 21.5751 38.4437 21.2209 38.0068 21.2209C37.5699 21.2209 37.2157 21.5751 37.2157 22.0121C37.2157 22.449 37.5699 22.8032 38.0068 22.8032Z" fill="white" stroke="white" stroke-width="0.0879022" stroke-miterlimit="10" stroke-linecap="round" stroke-linejoin="round"/>
<path d="M37.3036 18.7597C37.7405 18.7597 38.0947 18.4055 38.0947 17.9686C38.0947 17.5317 37.7405 17.1775 37.3036 17.1775C36.8667 17.1775 36.5125 17.5317 36.5125 17.9686C36.5125 18.4055 36.8667 18.7597 37.3036 18.7597Z" fill="white" stroke="white" stroke-width="0.0879022" stroke-miterlimit="10" stroke-linecap="round" stroke-linejoin="round"/>
<path d="M35.4577 12.8703C35.8946 12.8703 36.2488 12.5161 36.2488 12.0792C36.2488 11.6423 35.8946 11.2881 35.4577 11.2881C35.0207 11.2881 34.6665 11.6423 34.6665 12.0792C34.6665 12.5161 35.0207 12.8703 35.4577 12.8703Z" fill="white" stroke="white" stroke-width="0.0879022" stroke-miterlimit="10" stroke-linecap="round" stroke-linejoin="round"/>
<path d="M30.3593 8.15866C30.7963 8.15866 31.1504 7.80446 31.1504 7.36754C31.1504 6.93061 30.7963 6.57642 30.3593 6.57642C29.9224 6.57642 29.5682 6.93061 29.5682 7.36754C29.5682 7.80446 29.9224 8.15866 30.3593 8.15866Z" fill="white" stroke="white" stroke-width="0.0879022" stroke-miterlimit="10" stroke-linecap="round" stroke-linejoin="round"/>
<path d="M26.4037 8.42257C26.8407 8.42257 27.1948 8.06838 27.1948 7.63145C27.1948 7.19453 26.8407 6.84033 26.4037 6.84033C25.9668 6.84033 25.6126 7.19453 25.6126 7.63145C25.6126 8.06838 25.9668 8.42257 26.4037 8.42257Z" fill="white" stroke="white" stroke-width="0.0879022" stroke-miterlimit="10" stroke-linecap="round" stroke-linejoin="round"/>
<path d="M20.4264 6.44454C20.8633 6.44454 21.2175 6.09035 21.2175 5.65342C21.2175 5.2165 20.8633 4.8623 20.4264 4.8623C19.9895 4.8623 19.6353 5.2165 19.6353 5.65342C19.6353 6.09035 19.9895 6.44454 20.4264 6.44454Z" fill="white" stroke="white" stroke-width="0.0879022" stroke-miterlimit="10" stroke-linecap="round" stroke-linejoin="round"/>
<path d="M28.6892 4.58102C29.1261 4.58102 29.4803 4.22682 29.4803 3.7899C29.4803 3.35298 29.1261 2.99878 28.6892 2.99878C28.2523 2.99878 27.8981 3.35298 27.8981 3.7899C27.8981 4.22682 28.2523 4.58102 28.6892 4.58102Z" fill="white" stroke="white" stroke-width="0.0879022" stroke-miterlimit="10" stroke-linecap="round" stroke-linejoin="round"/>
<path d="M15.7676 3.66696C16.2045 3.66696 16.5587 3.31276 16.5587 2.87584C16.5587 2.43891 16.2045 2.08472 15.7676 2.08472C15.3306 2.08472 14.9764 2.43891 14.9764 2.87584C14.9764 3.31276 15.3306 3.66696 15.7676 3.66696Z" fill="white" stroke="white" stroke-width="0.0879022" stroke-miterlimit="10" stroke-linecap="round" stroke-linejoin="round"/>
<path d="M18.4925 5.29312C18.8178 5.29312 19.0815 5.02944 19.0815 4.70418C19.0815 4.37891 18.8178 4.11523 18.4925 4.11523C18.1673 4.11523 17.9036 4.37891 17.9036 4.70418C17.9036 5.02944 18.1673 5.29312 18.4925 5.29312Z" fill="white" stroke="white" stroke-width="0.0879022" stroke-miterlimit="10" stroke-linecap="round" stroke-linejoin="round"/>
<path d="M31.0625 4.30875C31.3878 4.30875 31.6515 4.04507 31.6515 3.7198C31.6515 3.39454 31.3878 3.13086 31.0625 3.13086C30.7373 3.13086 30.4736 3.39454 30.4736 3.7198C30.4736 4.04507 30.7373 4.30875 31.0625 4.30875Z" fill="white" stroke="white" stroke-width="0.0879022" stroke-miterlimit="10" stroke-linecap="round" stroke-linejoin="round"/>
<path d="M34.6665 4.73065C35.0549 4.73065 35.3698 4.41581 35.3698 4.02744C35.3698 3.63906 35.0549 3.32422 34.6665 3.32422C34.2782 3.32422 33.9633 3.63906 33.9633 4.02744C33.9633 4.41581 34.2782 4.73065 34.6665 4.73065Z" fill="white" stroke="white" stroke-width="0.0879022" stroke-miterlimit="10" stroke-linecap="round" stroke-linejoin="round"/>
<path d="M7.04004 39.6299L9.98438 32.2031H11.9443L7.41797 42.8643C7.11328 43.5439 6.8291 44.0273 6.56543 44.3145C6.30176 44.5957 5.99121 44.8125 5.63379 44.9648C5.28223 45.1113 4.83984 45.1846 4.30664 45.1846C3.84375 45.1846 3.54785 45.1582 3.41895 45.1055L3.47168 43.7695L4.27148 43.8047C4.88672 43.8047 5.34375 43.5088 5.64258 42.917L5.8623 42.46L6.19629 41.6777L1.83691 32.2031H3.72656L7.04004 39.6299ZM20.584 45H18.958V40.9395H14.5898V45H12.9551V35.4902H14.5898V39.6123H18.958V35.4902H20.584V45ZM29.3555 35.4902H30.9814V45H29.3555V38.0654L24.9697 45H23.3438V35.4902H24.9697V42.4336L29.3555 35.4902ZM36.5537 40.9482H35.3672V45H33.7324V35.4902H35.3672V39.5156H36.4307L39.6299 35.4902H41.5986L37.8369 40.0605L41.915 45H39.8496L36.5537 40.9482ZM46.6963 40.2275H42.4072V38.9004H46.6963V40.2275ZM52.9365 39.6299L55.8809 32.2031H57.8408L53.3145 42.8643C53.0098 43.5439 52.7256 44.0273 52.4619 44.3145C52.1982 44.5957 51.8877 44.8125 51.5303 44.9648C51.1787 45.1113 50.7363 45.1846 50.2031 45.1846C49.7402 45.1846 49.4443 45.1582 49.3154 45.1055L49.3682 43.7695L50.168 43.8047C50.7832 43.8047 51.2402 43.5088 51.5391 42.917L51.7588 42.46L52.0928 41.6777L47.7334 32.2031H49.623L52.9365 39.6299ZM64.1865 42.8467L67.4209 35.4902H69.4512V45H67.8252V38.083L64.749 45H63.624L60.4863 37.9336V45H58.8604V35.4902H60.9697L64.1865 42.8467Z" fill="#FBF9F9"/>
</svg>
