<svg width="43" height="30" viewBox="0 0 43 30" fill="none" xmlns="http://www.w3.org/2000/svg">
<path fill-rule="evenodd" clip-rule="evenodd" d="M4.46222 3.04933C3.67828 3.04933 3.04956 3.66983 3.04956 4.5206V25.4794C3.04956 26.3302 3.67828 26.9507 4.46222 26.9507H37.6369C38.4208 26.9507 39.0496 26.3302 39.0496 25.4794V4.5206C39.0496 3.66983 38.4208 3.04933 37.6369 3.04933H4.46222ZM0.0495605 4.5206C0.0495605 2.01998 1.98793 0 4.46222 0H37.6369C40.1112 0 42.0496 2.01998 42.0496 4.5206V25.4794C42.0496 27.98 40.1112 30 37.6369 30H4.46222C1.98793 30 0.0495605 27.98 0.0495605 25.4794V4.5206Z" fill="#18B9BB"/>
<path fill-rule="evenodd" clip-rule="evenodd" d="M40.0496 10H1.04956V7H40.0496V10Z" fill="#18B9BB"/>
<path fill-rule="evenodd" clip-rule="evenodd" d="M6.04956 15.5C6.04956 14.6716 6.76621 14 7.65025 14H17.4489C18.3329 14 19.0496 14.6716 19.0496 15.5C19.0496 16.3284 18.3329 17 17.4489 17H7.65025C6.76621 17 6.04956 16.3284 6.04956 15.5Z" fill="#18B9BB"/>
<path fill-rule="evenodd" clip-rule="evenodd" d="M6.04956 20.5C6.04956 19.6716 6.76621 19 7.65025 19H17.4489C18.3329 19 19.0496 19.6716 19.0496 20.5C19.0496 21.3284 18.3329 22 17.4489 22H7.65025C6.76621 22 6.04956 21.3284 6.04956 20.5Z" fill="#18B9BB"/>
</svg>
