<svg width="38" height="36" viewBox="0 0 38 36" fill="none" xmlns="http://www.w3.org/2000/svg">
<path fill-rule="evenodd" clip-rule="evenodd" d="M15 36C23.2843 36 30 29.2843 30 21C30 12.7157 23.2843 6 15 6C6.71573 6 0 12.7157 0 21C0 29.2843 6.71573 36 15 36ZM22.9616 26.9474C23 27.0369 23 27.1264 23 27.2159C23 27.6761 22.7955 28.571 22.6037 28.9929C22.3352 29.6193 21.6193 30.0284 21.044 30.348C20.2898 30.7571 19.5227 31 18.6662 31C17.6571 31 16.7309 30.65 15.8094 30.3019C15.6452 30.2398 15.4811 30.1778 15.3168 30.1179C14.5369 29.8366 13.7827 29.4915 13.0795 29.0568C10.9062 27.7145 8.28551 25.0938 6.94318 22.9205C6.50852 22.2173 6.16335 21.4631 5.8821 20.6832C5.82216 20.5189 5.76017 20.3548 5.69812 20.1906C5.34995 19.2691 5 18.3429 5 17.3338C5 16.4773 5.2429 15.7102 5.65199 14.956C5.97159 14.3807 6.38068 13.6648 7.0071 13.3963C7.42898 13.2045 8.32386 13 8.78409 13C8.87358 13 8.96307 13 9.05256 13.0384C9.29405 13.1189 9.5459 13.6338 9.68711 13.9226C9.70288 13.9548 9.71727 13.9843 9.73011 14.0099C9.86648 14.2528 10.0014 14.4972 10.1364 14.7415C10.4063 15.2301 10.6761 15.7188 10.9574 16.196C11.0085 16.279 11.0707 16.3668 11.1353 16.4579C11.3295 16.7319 11.5455 17.0364 11.5455 17.3338C11.5455 17.7356 10.9312 18.2324 10.3356 18.7141C9.77531 19.1673 9.23153 19.6071 9.23153 19.9418C9.23153 20.2267 9.44936 20.5814 9.62606 20.8691C9.6634 20.9299 9.69889 20.9877 9.73011 21.0412C11.0213 23.3679 12.6321 24.9787 14.9588 26.2699C15.0123 26.3011 15.0701 26.3366 15.1309 26.3739C15.4186 26.5506 15.7733 26.7685 16.0582 26.7685C16.3929 26.7685 16.8327 26.2247 17.2859 25.6644C17.7676 25.0688 18.2644 24.4545 18.6662 24.4545C18.9636 24.4545 19.2681 24.6705 19.5421 24.8647C19.6332 24.9293 19.721 24.9915 19.804 25.0426C20.2813 25.3239 20.7699 25.5938 21.2585 25.8636C21.5029 25.9986 21.7472 26.1335 21.9901 26.2699C22.0157 26.2827 22.0452 26.2971 22.0774 26.3129C22.3662 26.4541 22.8811 26.7059 22.9616 26.9474Z" fill="white"/>
<circle cx="27" cy="11" r="11" fill="white"/>
<path d="M27 1C32.5206 1 37 5.47937 37 11C37 16.5206 32.5206 21 27 21C21.4794 21 17 16.5206 17 11C17 5.47937 21.4794 1 27 1Z" stroke="#F44D4D" stroke-width="2"/>
<path d="M25.9622 13.2892C26.1428 13.2892 26.2854 13.3462 26.3901 13.4603C26.4949 13.5703 26.5472 13.7169 26.5472 13.9002V15H21V14.389C21 14.2709 21.0217 14.1446 21.065 14.0102C21.1083 13.8758 21.1842 13.7536 21.2925 13.6436L23.5678 11.0591C23.7628 10.8391 23.9325 10.6293 24.077 10.4297C24.2214 10.2301 24.3406 10.0346 24.4345 9.84318C24.5284 9.64766 24.5988 9.45418 24.6458 9.26273C24.6927 9.06721 24.7162 8.86151 24.7162 8.64562C24.7162 8.29124 24.6404 8.02037 24.4887 7.83299C24.3406 7.64155 24.1131 7.54583 23.8061 7.54583C23.5569 7.54583 23.3457 7.62118 23.1723 7.77189C23.0026 7.91853 22.8852 8.10183 22.8202 8.32179C22.7443 8.54582 22.645 8.6945 22.5222 8.76782C22.3995 8.84114 22.2243 8.85743 21.9968 8.8167L21.1083 8.63951C21.1661 8.19552 21.2763 7.80855 21.4388 7.47861C21.6049 7.14868 21.809 6.87373 22.0509 6.65377C22.2965 6.43381 22.5764 6.27088 22.8906 6.16497C23.2048 6.05499 23.5425 6 23.9036 6C24.2937 6 24.644 6.06517 24.9546 6.19552C25.2688 6.32179 25.536 6.49898 25.7563 6.72709C25.9766 6.95519 26.1446 7.22811 26.2601 7.54583C26.3793 7.85947 26.4389 8.2057 26.4389 8.58452C26.4389 8.91039 26.3974 9.21181 26.3143 9.4888C26.2348 9.76578 26.1247 10.0306 25.9838 10.2831C25.843 10.5316 25.6787 10.7739 25.4909 11.0102C25.3067 11.2424 25.1099 11.4786 24.9004 11.7189L23.3565 13.5031C23.5551 13.4338 23.752 13.3809 23.947 13.3442C24.142 13.3075 24.3226 13.2892 24.4887 13.2892H25.9622Z" fill="#F44D4D"/>
<path d="M30.7248 11.5418V9.21996C30.7248 9.07739 30.7284 8.92464 30.7356 8.76171C30.7464 8.5947 30.7609 8.42159 30.7789 8.24236L28.6933 11.5418H30.7248ZM33 11.5418V12.6049C33 12.6986 32.9711 12.78 32.9133 12.8493C32.8592 12.9185 32.7797 12.9532 32.675 12.9532H32.1874V15H30.7248V12.9532H27.5503C27.4455 12.9532 27.3498 12.9165 27.2632 12.8432C27.1801 12.7699 27.1277 12.6782 27.1061 12.5682L26.9327 11.6334L30.5839 6.09776H32.1874V11.5418H33Z" fill="#F44D4D"/>
</svg>
