<svg width="95" height="90" viewBox="0 0 95 90" fill="none" xmlns="http://www.w3.org/2000/svg">
<path fill-rule="evenodd" clip-rule="evenodd" d="M37.5 90C58.2107 90 75 73.2107 75 52.5C75 31.7893 58.2107 15 37.5 15C16.7893 15 0 31.7893 0 52.5C0 73.2107 16.7893 90 37.5 90ZM57.4044 67.3686C57.5002 67.5924 57.5002 67.8161 57.5002 68.0398C57.5002 69.1904 56.9889 71.4276 56.5095 72.4823C55.8383 74.0483 54.0485 75.0711 52.6103 75.8701C50.7247 76.8928 48.8071 77.5 46.6657 77.5C44.143 77.5 41.8275 76.6251 39.5237 75.7547C39.1132 75.5996 38.703 75.4446 38.2921 75.2948C36.3426 74.5916 34.4569 73.7287 32.6991 72.6421C27.2659 69.2863 20.714 62.7344 17.3582 57.3012C16.2716 55.5434 15.4086 53.6577 14.7055 51.7081C14.5556 51.2972 14.4007 50.8871 14.2456 50.4765C13.3751 48.1728 12.5002 45.8573 12.5002 43.3345C12.5002 41.1932 13.1075 39.2756 14.1302 37.3899C14.9292 35.9517 15.9519 34.162 17.518 33.4908C18.5727 33.0114 20.8099 32.5 21.9605 32.5C22.1842 32.5 22.4079 32.5 22.6316 32.5959C23.2354 32.7972 23.865 34.0846 24.218 34.8065C24.2574 34.8871 24.2934 34.9607 24.3255 35.0249C24.6664 35.6321 25.0038 36.2429 25.3412 36.8537C26.0159 38.0753 26.6906 39.2969 27.3937 40.4901C27.5214 40.6975 27.6769 40.917 27.8385 41.1448C28.3241 41.8297 28.8639 42.5911 28.8639 43.3345C28.8639 44.339 27.3282 45.5811 25.8394 46.7853C24.4385 47.9183 23.0791 49.0178 23.0791 49.8544C23.0791 50.5668 23.6236 51.4535 24.0654 52.1727C24.1587 52.3247 24.2475 52.4692 24.3255 52.603C27.5535 58.4198 31.5805 62.4468 37.3973 65.6747C37.5311 65.7528 37.6756 65.8415 37.8275 65.9349C38.5468 66.3766 39.4334 66.9212 40.1458 66.9212C40.9825 66.9212 42.082 65.5618 43.215 64.1609C44.4192 62.6721 45.6612 61.1364 46.6657 61.1364C47.4091 61.1364 48.1705 61.6762 48.8554 62.1618C49.0833 62.3233 49.3027 62.4789 49.5102 62.6066C50.7034 63.3097 51.9249 63.9844 53.1465 64.6591C53.7573 64.9965 54.3681 65.3338 54.9754 65.6747C55.0396 65.7068 55.1131 65.7428 55.1938 65.7822C55.9157 66.1353 57.2031 66.7649 57.4044 67.3686Z" fill="#48BF5B"/>
<circle cx="67.5001" cy="27.5" r="27.5" fill="white"/>
<path d="M67.5001 1C82.1301 1 94.0001 12.87 94.0001 27.5C94.0001 42.13 82.1301 54 67.5001 54C52.8701 54 41.0001 42.13 41.0001 27.5C41.0001 12.87 52.8701 1 67.5001 1Z" stroke="#F44D4D" stroke-width="2"/>
<path d="M64.9053 33.223C65.3567 33.223 65.7133 33.3656 65.9752 33.6507C66.237 33.9257 66.3679 34.2923 66.3679 34.7505V37.5H52.4998V35.9725C52.4998 35.6772 52.554 35.3615 52.6623 35.0255C52.7707 34.6894 52.9603 34.3839 53.2311 34.109L58.9192 27.6477C59.4068 27.0978 59.8311 26.5733 60.1923 26.0743C60.5534 25.5754 60.8514 25.0866 61.0861 24.6079C61.3209 24.1191 61.4969 23.6354 61.6143 23.1568C61.7317 22.668 61.7904 22.1538 61.7904 21.6141C61.7904 20.7281 61.6008 20.0509 61.2215 19.5825C60.8514 19.1039 60.2826 18.8646 59.5151 18.8646C58.8921 18.8646 58.364 19.053 57.9306 19.4297C57.5062 19.7963 57.2128 20.2546 57.0503 20.8045C56.8607 21.3646 56.6124 21.7363 56.3054 21.9196C55.9984 22.1029 55.5605 22.1436 54.9917 22.0418L52.7707 21.5988C52.9151 20.4888 53.1905 19.5214 53.5968 18.6965C54.0121 17.8717 54.5222 17.1843 55.1272 16.6344C55.7411 16.0845 56.4408 15.6772 57.2263 15.4124C58.0118 15.1375 58.856 15 59.7589 15C60.734 15 61.6098 15.1629 62.3863 15.4888C63.1717 15.8045 63.8399 16.2475 64.3906 16.8177C64.9414 17.388 65.3612 18.0703 65.6501 18.8646C65.9481 19.6487 66.0971 20.5143 66.0971 21.4613C66.0971 22.276 65.9932 23.0295 65.7856 23.722C65.5869 24.4145 65.3116 25.0764 64.9594 25.7077C64.6073 26.3289 64.1965 26.9348 63.727 27.5255C63.2666 28.1059 62.7745 28.6965 62.2508 29.2974L58.391 33.7576C58.8876 33.5845 59.3797 33.4521 59.8672 33.3605C60.3548 33.2688 60.8062 33.223 61.2215 33.223H64.9053Z" fill="#F44D4D"/>
<path d="M76.8117 28.8544V23.0499C76.8117 22.6935 76.8208 22.3116 76.8388 21.9043C76.8659 21.4868 76.902 21.054 76.9472 20.6059L71.7331 28.8544H76.8117ZM82.4998 28.8544V31.5122C82.4998 31.7464 82.4276 31.9501 82.2831 32.1232C82.1477 32.2963 81.9491 32.3829 81.6872 32.3829H80.4684V37.5H76.8117V32.3829H68.8755C68.6137 32.3829 68.3744 32.2912 68.1577 32.1079C67.9501 31.9246 67.8191 31.6955 67.765 31.4206L67.3316 29.0835L76.4596 15.2444H80.4684V28.8544H82.4998Z" fill="#F44D4D"/>
</svg>
