<svg width="45" height="42" viewBox="0 0 45 42" fill="none" xmlns="http://www.w3.org/2000/svg">
<path d="M45 24.9795C45 20.9041 42.0658 17.5 38.1851 16.8767V15.726C38.1851 7.04795 31.2282 0 22.6622 0C14.0963 0 7.09207 7.04795 7.09207 15.726V16.8288C3.1167 17.3562 0.0405273 20.8082 0.0405273 24.9795C0.0405273 29.5342 3.68461 33.226 8.18056 33.226H10.2629C11.9666 33.226 13.2917 31.8356 13.2917 30.1575V19.8493C13.2917 18.2671 12.1086 16.9726 10.5942 16.7808V15.726C10.5942 9.0137 15.9893 3.54795 22.6149 3.54795C29.2405 3.54795 34.6357 9.0137 34.6357 15.726V16.7329C32.9793 16.7808 31.7015 18.1233 31.7015 19.8014V30.1096C31.7015 31.4041 32.506 32.5548 33.6892 32.9863C32.2221 35.4795 29.6665 37.1575 26.6376 37.3973C26.4483 36.5342 25.6911 35.863 24.7446 35.863H20.4853C19.4441 35.863 18.5449 36.726 18.5449 37.8288V40.0342C18.5449 41.089 19.3968 42 20.4853 42H24.7446C25.6911 42 26.4956 41.3288 26.6376 40.3699C31.2282 40.1301 35.1089 37.2055 36.86 33.1781C41.3559 33.1781 45 29.4863 45 24.9795ZM9.78964 29.6301H8.18056C5.62497 29.6301 3.58996 27.5205 3.58996 24.9795C3.58996 22.4384 5.6723 20.3288 8.18056 20.3288H9.78964V29.6301ZM36.86 29.6301H35.2509V20.3288H36.86C39.4156 20.3288 41.4506 22.4384 41.4506 24.9795C41.4506 27.5205 39.4156 29.6301 36.86 29.6301Z" fill="#18B9BB"/>
</svg>
