<svg width="15" height="14" viewBox="0 0 15 14" fill="none" xmlns="http://www.w3.org/2000/svg">
<path fill-rule="evenodd" clip-rule="evenodd" d="M12.8035 1.55612V3.24671C12.8035 4.01084 12.1836 4.62661 11.4196 4.62661H10.5466C9.7825 4.62661 9.15439 4.01084 9.15439 3.24671V1.55005H5.2195V3.24671C5.2195 4.01084 4.59142 4.62661 3.82746 4.62661H2.95428C2.19029 4.62661 1.57043 4.01084 1.57043 3.24671V1.55612C0.902695 1.57625 0.354004 2.12877 0.354004 2.8079V12.7156C0.354004 13.4075 0.914806 13.9757 1.6067 13.9757H12.7672C13.4581 13.9757 14.0199 13.4063 14.0199 12.7156V2.8079C14.0199 2.12877 13.4712 1.57625 12.8035 1.55612ZM5.34229 7.36406C5.34229 7.16294 5.17918 7 4.97793 7H3.70645C3.50542 7 3.34229 7.16294 3.34229 7.36406V8.63561C3.34229 8.837 3.50542 9 3.70645 9H4.97793C5.17918 9 5.34229 8.837 5.34229 8.63561V7.36406ZM7.97825 7C8.17913 7 8.34229 7.16294 8.34229 7.36406V8.63561C8.34229 8.837 8.17913 9 7.97825 9H6.70648C6.50544 9 6.34229 8.837 6.34229 8.63561V7.36406C6.34229 7.16294 6.50544 7 6.70648 7H7.97825ZM11.3423 7.36406C11.3423 7.16294 11.1791 7 10.9781 7H9.70665C9.50539 7 9.34229 7.16294 9.34229 7.36406V8.63561C9.34229 8.837 9.50539 9 9.70665 9H10.9781C11.1791 9 11.3423 8.837 11.3423 8.63561V7.36406ZM4.97793 10C5.17918 10 5.34229 10.1628 5.34229 10.3643V11.6357C5.34229 11.837 5.17918 12 4.97793 12H3.70645C3.50542 12 3.34229 11.837 3.34229 11.6357V10.3643C3.34229 10.1628 3.50542 10 3.70645 10H4.97793ZM8.34229 10.3643C8.34229 10.1628 8.17913 10 7.97825 10H6.70648C6.50544 10 6.34229 10.1628 6.34229 10.3643V11.6357C6.34229 11.837 6.50544 12 6.70648 12H7.97825C8.17913 12 8.34229 11.837 8.34229 11.6357V10.3643ZM10.9783 10C11.1791 10 11.3423 10.1628 11.3423 10.3643V11.6357C11.3423 11.837 11.1791 12 10.9783 12H9.70665C9.50539 12 9.34229 11.837 9.34229 11.6357V10.3643C9.34229 10.1628 9.50539 10 9.70665 10H10.9783Z" fill="#C1C1C1"/>
<path d="M2.95119 3.72031H3.81472C4.07683 3.72031 4.28935 3.5081 4.28935 3.246V0.474483C4.28935 0.212348 4.07683 0 3.81472 0H2.95119C2.68905 0 2.47656 0.212348 2.47656 0.474483V3.246C2.47656 3.5081 2.68905 3.72031 2.95119 3.72031Z" fill="#C1C1C1"/>
<path d="M10.5354 3.72031H11.3989C11.6609 3.72031 11.8734 3.5081 11.8734 3.246V0.474483C11.8734 0.212348 11.6609 0 11.3989 0H10.5354C10.2733 0 10.0608 0.212348 10.0608 0.474483V3.246C10.0608 3.5081 10.2733 3.72031 10.5354 3.72031Z" fill="#B3B3B3"/>
</svg>
