<svg width="28" height="15" viewBox="0 0 28 15" fill="none" xmlns="http://www.w3.org/2000/svg">
<path d="M9.83492 7.83339C9.46544 7.27783 8.98229 6.80561 8.41386 6.4445C8.3286 6.38894 8.24334 6.38894 8.15807 6.4445C7.44755 6.9445 6.5665 7.25005 5.6286 7.25005C4.69071 7.25005 3.80965 6.9445 3.09913 6.4445C3.01386 6.38894 2.9286 6.38894 2.84334 6.4445C1.1665 7.50005 0.342285 9.55561 0.342285 11.9445C0.342285 12.9445 4.37807 13.3334 7.44755 13.1112C7.58965 10.8612 8.44229 9.00005 9.83492 7.83339Z" fill="#B3B3B3"/>
<path d="M5.62861 6.16667C7.37093 6.16667 8.78335 4.78621 8.78335 3.08333C8.78335 1.38046 7.37093 0 5.62861 0C3.8863 0 2.47388 1.38046 2.47388 3.08333C2.47388 4.78621 3.8863 6.16667 5.62861 6.16667Z" fill="#B3B3B3"/>
<path d="M24.8412 6.4445C24.7559 6.38894 24.6707 6.38894 24.5854 6.4445C23.8749 6.9445 22.9938 7.25005 22.0559 7.25005C21.118 7.25005 20.237 6.9445 19.5265 6.4445C19.4412 6.38894 19.3559 6.38894 19.2707 6.4445C18.7022 6.80561 18.2475 7.27783 17.8496 7.83339C19.2422 9.00005 20.0949 10.8612 20.237 13.1112C23.3349 13.3334 27.3422 12.9723 27.3422 11.9445C27.3422 9.55561 26.518 7.50005 24.8412 6.4445Z" fill="#B3B3B3"/>
<path d="M22.0561 6.16667C23.7984 6.16667 25.2108 4.78621 25.2108 3.08333C25.2108 1.38046 23.7984 0 22.0561 0C20.3138 0 18.9014 1.38046 18.9014 3.08333C18.9014 4.78621 20.3138 6.16667 22.0561 6.16667Z" fill="#B3B3B3"/>
<path d="M16.6275 8.27775C16.5422 8.2222 16.457 8.2222 16.3717 8.27775C15.6612 8.77775 14.7801 9.08331 13.8422 9.08331C12.9043 9.08331 12.0233 8.77775 11.3127 8.27775C11.2275 8.2222 11.1422 8.2222 11.057 8.27775C9.38012 9.33331 8.55591 11.3889 8.55591 13.7778C8.55591 15.4166 19.157 15.4166 19.157 13.7778C19.1285 11.4166 18.3043 9.33331 16.6275 8.27775Z" fill="#B3B3B3"/>
<path d="M13.8422 8.00004C15.5845 8.00004 16.997 6.61958 16.997 4.91671C16.997 3.21383 15.5845 1.83337 13.8422 1.83337C12.0999 1.83337 10.6875 3.21383 10.6875 4.91671C10.6875 6.61958 12.0999 8.00004 13.8422 8.00004Z" fill="#B3B3B3"/>
</svg>
