<svg width="42" height="40" viewBox="0 0 42 40" fill="none" xmlns="http://www.w3.org/2000/svg">
<path fill-rule="evenodd" clip-rule="evenodd" d="M21.0495 0.5C21.6205 0.5 22.1419 0.824148 22.3946 1.33615L27.9234 12.5388L40.2863 14.3352C40.8513 14.4174 41.3208 14.8131 41.4972 15.3561C41.6736 15.8992 41.5265 16.4953 41.1176 16.8938L32.1718 25.6138L34.2836 37.9268C34.3801 38.4895 34.1488 39.0583 33.6869 39.3939C33.225 39.7295 32.6126 39.7737 32.1072 39.508L21.0495 33.6947L9.9918 39.508C9.48642 39.7737 8.87403 39.7295 8.41211 39.3939C7.95019 39.0583 7.71886 38.4895 7.81538 37.9268L9.92721 25.6138L0.981346 16.8938C0.572487 16.4953 0.425342 15.8992 0.601779 15.3561C0.778217 14.8131 1.24764 14.4174 1.81267 14.3352L14.1755 12.5388L19.7044 1.33615C19.9571 0.824148 20.4785 0.5 21.0495 0.5ZM21.0495 5.38933L16.5167 14.5737C16.2983 15.0164 15.8759 15.3232 15.3873 15.3942L5.25181 16.867L12.5859 24.016C12.9395 24.3606 13.1008 24.8571 13.0173 25.3437L11.286 35.4383L20.3515 30.6723C20.7885 30.4426 21.3105 30.4426 21.7475 30.6723L30.813 35.4383L29.0816 25.3437C28.9982 24.8571 29.1595 24.3606 29.513 24.016L36.8472 16.867L26.7116 15.3942C26.2231 15.3232 25.8007 15.0164 25.5822 14.5737L21.0495 5.38933Z" fill="#18B9BB"/>
</svg>
