<svg width="37" height="44" viewBox="0 0 37 44" fill="none" xmlns="http://www.w3.org/2000/svg">
<path d="M1.44406 7.97157C4.30644 7.47116 6.94864 6.57756 9.44406 5.36226C12.1964 4.00399 14.6918 2.28828 16.967 0.393849C17.5908 -0.14231 18.5083 -0.106566 19.1321 0.429593C21.4074 2.32402 23.9028 4.03973 26.6551 5.36226C29.1138 6.57756 31.8294 7.5069 34.6918 7.97157C35.4624 8.11455 36.0496 8.79368 36.0496 9.54431C36.0496 17.7297 34.9486 24.0921 32.233 29.3822C29.5174 34.7438 25.2239 38.8901 18.9119 42.7862C18.3615 43.1079 17.6642 43.0722 17.1505 42.7505C10.8386 38.8901 6.58167 34.7081 3.86607 29.3822C1.15048 24.1278 0.0495605 17.7654 0.0495605 9.58005C0.0495605 8.75794 0.673414 8.0788 1.44406 7.97157ZM12.0496 21.9475C11.4257 21.3398 11.4257 20.339 12.0496 19.6956C12.6734 19.0879 13.7009 19.0879 14.3615 19.6956L17.5175 22.7696L23.5358 16.9433C24.1597 16.3357 25.1872 16.3357 25.8477 16.9076C26.4716 17.5152 26.4716 18.5518 25.8477 19.1594L18.6551 26.1295C18.0312 26.7372 16.967 26.7372 16.3431 26.1295L12.0496 21.9475ZM10.9119 8.18604C8.52662 9.32984 5.99451 10.2592 3.35231 10.8668C3.4624 17.9441 4.48993 23.4845 6.80185 27.9882C9.11378 32.5277 12.7468 36.1736 18.0679 39.5335C23.389 36.1378 27.022 32.5277 29.334 27.9882C31.6826 23.4845 32.6734 17.9441 32.8202 10.8668C30.1413 10.2949 27.6092 9.36559 25.2239 8.18604C22.6551 6.935 20.2697 5.39801 18.1046 3.64655C15.8661 5.39801 13.4808 6.935 10.9119 8.18604Z" fill="#18B9BB"/>
</svg>
