<svg width="31" height="31" viewBox="0 0 31 31" fill="none" xmlns="http://www.w3.org/2000/svg">
<path fill-rule="evenodd" clip-rule="evenodd" d="M0.00337609 15.4597C0.00337609 6.90682 6.93886 0 15.4872 0C18.2292 0 20.9066 0.710047 23.2614 2.09787C30.6808 6.39042 33.1969 15.8792 28.9066 23.2702C24.6163 30.6611 15.1647 33.1786 7.74531 28.886L1.6808 30.9193C1.42273 31.0161 1.13241 31.0161 0.874344 30.9193C0.196925 30.6934 -0.157914 29.9511 0.0678922 29.2733L2.10015 23.2379C0.713054 20.8818 0.00337609 18.1707 0.00337609 15.4597ZM18.0035 15.9917C18.0035 17.0957 17.1081 17.9906 16.0035 17.9906C14.899 17.9906 14.0035 17.0957 14.0035 15.9917C14.0035 14.8877 14.899 13.9927 16.0035 13.9927C17.1081 13.9927 18.0035 14.8877 18.0035 15.9917ZM9.00354 17.9906C10.1081 17.9906 11.0035 17.0957 11.0035 15.9917C11.0035 14.8877 10.1081 13.9927 9.00354 13.9927C7.89897 13.9927 7.00354 14.8877 7.00354 15.9917C7.00354 17.0957 7.89897 17.9906 9.00354 17.9906ZM25.0035 15.9917C25.0035 17.0957 24.1081 17.9906 23.0035 17.9906C21.899 17.9906 21.0035 17.0957 21.0035 15.9917C21.0035 14.8877 21.899 13.9927 23.0035 13.9927C24.1081 13.9927 25.0035 14.8877 25.0035 15.9917Z" fill="#B3B3B3"/>
</svg>
