<svg width="42" height="66" viewBox="0 0 42 66" fill="none" xmlns="http://www.w3.org/2000/svg">
<path d="M41.0496 18.48C41.0496 14.124 37.5902 10.56 33.3621 10.56C34.1308 9.504 34.6433 8.052 34.6433 6.6C34.6433 2.904 31.8246 0 28.2371 0C24.6496 0 21.8308 2.904 21.8308 6.6C21.8308 8.052 22.3433 9.504 23.1121 10.56C18.8839 10.56 15.4246 14.124 15.4246 18.48V22.968C14.6558 22.572 13.7589 22.44 12.8621 22.44C9.27456 22.44 6.45581 25.344 6.45581 29.04C6.45581 30.492 6.96831 31.944 7.73706 33C3.50894 33 0.0495605 36.564 0.0495605 40.92V47.52C0.0495605 49.764 1.71519 51.48 3.89331 51.48C4.40581 51.48 4.79019 51.348 5.17456 51.216V61.38C5.17456 63.888 7.22456 66 9.65894 66C10.9402 66 12.0933 65.472 12.8621 64.548C13.6308 65.472 14.7839 66 16.0652 66C18.4996 66 20.5496 63.888 20.5496 61.38V51.216C20.9339 51.348 21.3183 51.48 21.8308 51.48C24.0089 51.48 25.6746 49.764 25.6746 47.52V43.428C26.6996 43.296 27.5964 42.768 28.2371 42.108C29.0058 43.032 30.1589 43.56 31.4402 43.56C33.8746 43.56 35.9246 41.448 35.9246 38.94V28.776C36.3089 28.908 36.6933 29.04 37.2058 29.04C39.3839 29.04 41.0496 27.324 41.0496 25.08V18.48ZM24.3933 6.6C24.3933 4.356 26.0589 2.64 28.2371 2.64C30.4152 2.64 32.0808 4.356 32.0808 6.6C32.0808 8.844 30.4152 10.56 28.2371 10.56C26.0589 10.56 24.3933 8.844 24.3933 6.6ZM20.5496 33.396C19.7808 33.132 18.8839 33 17.9871 33C18.7558 31.944 19.2683 30.492 19.2683 29.04C19.7808 29.04 20.1652 28.908 20.5496 28.776V33.396ZM9.01831 29.04C9.01831 26.796 10.6839 25.08 12.8621 25.08C14.0152 25.08 15.0402 25.608 15.8089 26.532C15.9371 26.664 16.0652 26.928 16.1933 27.06C16.1933 27.06 16.1933 27.06 16.1933 27.192C16.3214 27.324 16.3214 27.456 16.4496 27.72C16.5777 28.116 16.7058 28.644 16.7058 29.172C16.7058 31.416 15.0402 33.132 12.8621 33.132C10.6839 33.132 9.01831 31.284 9.01831 29.04ZM23.1121 47.52C23.1121 48.312 22.5996 48.84 21.8308 48.84C21.0621 48.84 20.5496 48.312 20.5496 47.52V46.2V39.6H17.9871V46.2V47.52V61.38C17.9871 62.436 17.0902 63.36 16.0652 63.36C15.0402 63.36 14.1433 62.436 14.1433 61.38V48.84H11.5808V61.38C11.5808 62.436 10.6839 63.36 9.65894 63.36C8.63394 63.36 7.73706 62.436 7.73706 61.38V47.52V46.2V39.6H5.17456V46.2V47.52C5.17456 48.312 4.66206 48.84 3.89331 48.84C3.12456 48.84 2.61206 48.312 2.61206 47.52V40.92C2.61206 38.016 4.91831 35.64 7.73706 35.64H17.9871C19.1402 35.64 20.1652 36.036 21.0621 36.696C21.3183 36.96 21.7027 37.224 21.8308 37.488C21.8308 37.488 21.8308 37.62 21.9589 37.62C22.2152 37.884 22.3433 38.148 22.4714 38.412C22.4714 38.544 22.5996 38.544 22.5996 38.676C22.7277 38.94 22.8558 39.204 22.8558 39.468C22.8558 39.6 22.8558 39.6 22.9839 39.732C23.1121 40.128 23.1121 40.524 23.1121 40.92V42.24V47.52ZM38.4871 25.08C38.4871 25.872 37.9746 26.4 37.2058 26.4C36.4371 26.4 35.9246 25.872 35.9246 25.08V23.76V17.16H33.3621V23.76V25.08V38.94C33.3621 39.996 32.4652 40.92 31.4402 40.92C30.4152 40.92 29.5183 39.996 29.5183 38.94V26.4H26.9558V38.94C26.9558 39.864 26.4433 40.524 25.6746 40.788C25.6746 40.656 25.6746 40.524 25.6746 40.524C25.6746 40.392 25.6746 40.26 25.6746 40.128C25.6746 39.996 25.6746 39.864 25.6746 39.732C25.6746 39.6 25.6746 39.468 25.5464 39.336C25.5464 39.204 25.5464 39.072 25.4183 39.072C25.4183 38.94 25.2902 38.808 25.2902 38.544C25.2902 38.412 25.2902 38.412 25.1621 38.28C25.1621 38.148 25.0339 37.884 24.9058 37.752C24.9058 37.752 24.9058 37.62 24.7777 37.62C24.6496 37.356 24.5214 37.224 24.5214 36.96C24.1371 36.3 23.6246 35.64 22.9839 35.112V25.08V23.76V17.16H20.4214V23.76V25.08C20.4214 25.872 19.9089 26.4 19.1402 26.4C18.8839 26.4 18.6277 26.268 18.4996 26.268C18.4996 26.136 18.3714 26.136 18.3714 26.004C18.2433 25.74 17.9871 25.344 17.8589 25.08V18.48C17.8589 15.576 20.1652 13.2 22.9839 13.2H33.2339C36.0527 13.2 38.3589 15.576 38.3589 18.48C38.4871 18.48 38.4871 25.08 38.4871 25.08Z" fill="#18B9BB"/>
</svg>
