<svg xmlns="http://www.w3.org/2000/svg" style="display: none;"><symbol id="sprite-browserstack-logo" viewBox="0 0 490.1 105.6"><title>Browserstack-logo-white</title><circle cx="52.8" cy="52.8" r="52.8" fill="#f4b960"/><circle cx="47.5" cy="47.5" r="47.5" fill="#e66f32"/><circle cx="53.8" cy="41.1" r="41.1" fill="#e43c41"/><circle cx="57.1" cy="44.4" r="37.8" fill="#bdd041"/><circle cx="54.3" cy="47.2" r="35.1" fill="#6db54c"/><circle cx="48.8" cy="41.7" r="29.5" fill="#aedae6"/><circle cx="53.6" cy="36.8" r="24.7" fill="#56b8de"/><circle cx="56.6" cy="39.9" r="21.7" fill="#00b1d5"/><radialGradient id="SVGID_1_" cx="53.45" cy="63.02" r="18.57" gradientTransform="matrix(1 0 0 -1 0 106)" gradientUnits="userSpaceOnUse"><stop offset="0" stop-color="#797979"/><stop offset="1" stop-color="#4c4c4c"/></radialGradient><circle cx="53.5" cy="43" r="18.6" fill="url(#SVGID_1_)"/><circle cx="53.5" cy="43" r="18.6" fill="#221f1f"/><ellipse transform="rotate(-65.832 60.867 36.231)" cx="60.9" cy="36.2" rx="5.7" ry="3.7" fill="#fff"/><path d="M122.5 32.6c0-.3.3-.6.6-.6h16.7c9.5 0 13.9 4.4 13.9 11 .2 3.7-1.8 7.2-5.2 8.8v.1c3.7 1.5 6.1 5.2 6 9.3 0 8.2-5.6 12.2-15.4 12.2h-16c-.3 0-.6-.2-.7-.5v-.1l.1-40.2zm17.1 16.5c3.9 0 6.4-2.2 6.4-5.4s-2.4-5.5-6.4-5.5h-8.9c-.2 0-.4.1-.4.3v10.3c0 .2.1.3.3.4h9v-.1zm-9 17.8h9.3c4.3 0 6.8-2.3 6.8-5.8s-2.4-5.7-6.7-5.7h-9.3c-.2 0-.4.1-.4.3v10.8c0 .3.1.4.3.4zm29.3 6.4c-.3 0-.6-.2-.7-.5V44.6c0-.3.3-.6.6-.6h6.1c.3 0 .6.2.7.5v2.6h.1c1.5-2.2 4.2-3.8 8.2-3.8 2.4 0 4.8.8 6.6 2.4.3.3.4.5.1.8l-3.5 4.1c-.2.3-.6.4-.9.2h-.1c-1.4-.9-3-1.4-4.7-1.4-4.1 0-6 2.7-6 7.4v15.9c0 .3-.3.6-.6.6h-5.9zm23-7.5c-.8-2.3-1.1-4.8-1.1-7.2-.1-2.5.3-4.9 1.1-7.2 1.8-5.1 6.6-8.1 13.1-8.1s11.2 3 13 8.1c.8 2.3 1.1 4.8 1.1 7.2.1 2.5-.3 4.9-1.1 7.2-1.8 5.1-6.6 8.1-13 8.1s-11.3-2.9-13.1-8.1zm19-1.8c.5-1.7.8-3.6.7-5.4.1-1.8-.1-3.7-.7-5.4-.9-2.5-3.3-4-5.9-3.8-2.6-.2-5.1 1.4-6 3.8-.5 1.8-.8 3.6-.7 5.4-.1 1.8.1 3.7.7 5.4.9 2.5 3.4 4 6 3.8 2.6.2 5-1.3 5.9-3.8zm40 9.3c-.4 0-.7-.3-.8-.6L235 53.9h-.1l-6.2 18.7c-.1.4-.4.6-.8.6h-5.4c-.4 0-.7-.3-.8-.6l-10-28.1c-.1-.2 0-.5.2-.6.1 0 .2-.1.3 0h6.3c.4 0 .8.2.9.6l6.1 19.3h.1l6-19.3c.1-.4.5-.6.9-.6h4.7c.4 0 .7.2.9.6l6.4 19.3h.1l5.8-19.3c.1-.4.5-.7.9-.6h6.3c.2-.1.5.1.5.3v.3l-10 28.1c-.1.4-.4.6-.8.6l-5.4.1zm17.4-4c-.2-.2-.3-.6-.1-.8l.1-.1 3.7-3.6c.3-.2.7-.2.9 0 2.6 2.1 5.9 3.3 9.3 3.3 3.9 0 5.9-1.5 5.9-3.5 0-1.8-1.1-2.9-5.2-3.2l-3.4-.3c-6.4-.6-9.7-3.6-9.7-8.6 0-5.7 4.4-9.2 12.3-9.2 4.2-.1 8.4 1.2 11.9 3.6.3.2.3.5.2.8v.1l-3.2 3.6c-.2.3-.6.3-.9.1-2.5-1.5-5.4-2.4-8.3-2.4-3.1 0-4.8 1.3-4.8 3s1.1 2.7 5.2 3.1l3.4.3c6.6.6 9.8 3.8 9.8 8.6 0 5.8-4.6 9.9-13.3 9.9-5.1 0-9.9-1.6-13.8-4.7zm31.9-3.5c-.8-2.3-1.2-4.7-1.1-7.2-.1-2.5.3-4.9 1-7.2 1.8-5.1 6.6-8.1 12.9-8.1 6.5 0 11.2 3.1 13 8.1.7 2.1 1 4.1 1 8.8 0 .3-.3.6-.6.6h-19.6c-.2 0-.4.1-.4.3v.1c0 .8.2 1.5.5 2.2 1 2.9 3.5 4.4 7.1 4.4 2.7.1 5.4-.9 7.4-2.8.2-.3.7-.4 1-.1l3.9 3.2c.2.1.3.5.2.7 0 .1-.1.1-.1.1-2.7 2.9-7.2 5-13 5-6.6 0-11.4-3-13.2-8.1zm19.2-13c-.9-2.4-3.2-3.8-6.2-3.8s-5.4 1.4-6.2 3.8c-.3.8-.4 1.6-.4 2.5 0 .2.1.3.3.4h12.5c.2 0 .4-.1.4-.3v-.1c0-.8-.2-1.7-.4-2.5zm13.2 20.5c-.3 0-.6-.2-.7-.5V44.6c0-.3.3-.6.6-.6h6.1c.3 0 .6.2.7.5v2.6h.1c1.5-2.2 4.2-3.8 8.2-3.8 2.4 0 4.8.8 6.6 2.4.3.3.4.5.1.8l-3.5 4.1c-.2.3-.6.4-.9.2h-.1c-1.4-.9-3-1.4-4.7-1.4-4.1 0-6 2.7-6 7.4v15.9c0 .3-.3.6-.6.6h-5.9zm22.9-4.8c-.3-.2-.4-.6-.2-.9l4.1-4.4c.2-.3.6-.3.9-.1 3.5 2.7 7.7 4.2 12.1 4.4 5.3 0 8.4-2.5 8.4-6 0-3-2-4.9-8.1-5.7l-2.4-.3c-8.6-1.1-13.5-4.9-13.5-11.8 0-7.5 5.9-12.4 15.1-12.4 5.1-.1 10.1 1.4 14.5 4.2.3.1.4.4.2.7 0 .1-.1.1-.1.2l-3.1 4.5c-.2.3-.6.4-.9.2-3.2-2.1-6.9-3.2-10.7-3.2-4.5 0-7 2.3-7 5.5 0 2.9 2.2 4.8 8.2 5.6l2.4.3c8.6 1.1 13.3 4.9 13.3 12 0 7.3-5.7 12.8-16.8 12.8-6.6-.2-12.9-2.6-16.4-5.6zm46.8 5.3c-6.4 0-8.8-2.9-8.8-8.6V49.8c0-.2-.1-.3-.3-.4H382c-.3 0-.6-.2-.7-.5v-4.2c0-.3.3-.6.6-.6h2.2c.2 0 .4-.1.4-.3v-8.1c0-.3.3-.6.6-.6h6.1c.3 0 .6.2.7.5v8.1c0 .2.1.3.3.4h4.3c.3 0 .6.2.7.5v4.2c0 .3-.3.6-.6.6h-4.3c-.2 0-.4.1-.4.3V65c0 2.1.9 2.7 3 2.7h1.6c.3 0 .6.2.7.5v5c0 .3-.3.6-.6.6h-3.3zm27.9-.5c-.3 0-.6-.2-.7-.5v-2.2c-1.5 2-4.5 3.4-8.9 3.4-5.8 0-10.6-2.8-10.6-8.9 0-6.4 4.9-9.3 12.7-9.3h6.4c.2 0 .4-.1.4-.3V54c0-3.3-1.7-4.9-7-4.9-2.6-.1-5.1.6-7.2 2-.3.2-.7.2-.9-.1v-.1l-2.4-4c-.2-.2-.1-.6.1-.8 2.6-1.7 6-2.9 11.2-2.9 9.6 0 13.2 3 13.2 10.2v19.1c0 .3-.3.6-.6.6h-5.7v.2zm-.8-9.9v-2.2c0-.2-.1-.3-.3-.4h-5.3c-4.7 0-6.8 1.2-6.8 3.9 0 2.4 1.9 3.6 5.5 3.6 4.4.1 6.9-1.5 6.9-4.9zm12.7 2.4c-.7-2.3-1.1-4.8-1-7.2-.1-2.4.3-4.9 1-7.2 1.8-5.2 6.7-8.1 13.1-8.1 4.2-.2 8.2 1.5 11 4.6.2.2.2.6 0 .8l-.1.1-4.1 3.3c-.3.2-.7.2-.9-.1v-.1c-1.5-1.7-3.6-2.6-5.9-2.5-2.8 0-5 1.3-5.9 3.8-.5 1.8-.8 3.6-.7 5.4-.1 1.8.1 3.7.7 5.5.9 2.5 3.1 3.8 5.9 3.8 2.2.1 4.4-.9 5.9-2.6.2-.3.6-.3.9-.1l4.1 3.3c.3.2.3.5.1.8l-.1.1c-2.9 3-6.9 4.6-11 4.5-6.3 0-11.1-2.8-13-8.1zm49.7 7.5c-.4 0-.8-.2-1-.6l-8-12.3-4.3 4.6v7.7c0 .3-.3.6-.6.6h-6.1c-.3 0-.6-.2-.7-.5V32.6c0-.3.3-.6.6-.6h6.1c.3 0 .6.2.7.5v23.9l10.8-11.8c.3-.4.8-.6 1.2-.6h6.7c.2 0 .4.1.4.3 0 .1 0 .3-.1.3l-10.1 10.7L490 72.7c.1.2.1.4 0 .5-.1.1-.2.1-.3.1h-6.9z" fill="#000111"/></symbol><symbol id="sprite-icon" viewBox="0 0 24 10"><title>icon</title><path d="M2 2.584L11.59 8 22 2" stroke-width="4" stroke="#BD0D07" fill="none" fill-rule="evenodd" stroke-linecap="round" stroke-linejoin="round"/></symbol><symbol fill="none" id="sprite-icon_calendar" viewBox="0 0 15 14"><title>icon_calendar</title><path fill-rule="evenodd" clip-rule="evenodd" d="M12.803 1.556v1.69c0 .765-.62 1.38-1.383 1.38h-.873a1.388 1.388 0 01-1.393-1.38V1.55H5.22v1.697c0 .764-.629 1.38-1.393 1.38h-.873a1.38 1.38 0 01-1.384-1.38v-1.69a1.258 1.258 0 00-1.216 1.25v9.909c0 .692.56 1.26 1.253 1.26h11.16a1.26 1.26 0 001.253-1.26V2.808c0-.68-.549-1.232-1.216-1.252zm-7.46 5.808A.364.364 0 004.977 7H3.706a.364.364 0 00-.364.364v1.272c0 .201.163.364.364.364h1.272a.364.364 0 00.364-.364V7.364zM7.977 7c.201 0 .364.163.364.364v1.272A.364.364 0 017.978 9H6.706a.364.364 0 01-.364-.364V7.364c0-.201.163-.364.364-.364h1.272zm3.364.364A.364.364 0 0010.978 7H9.707a.364.364 0 00-.365.364v1.272c0 .201.163.364.365.364h1.271a.364.364 0 00.364-.364V7.364zM4.978 10c.201 0 .364.163.364.364v1.272a.364.364 0 01-.364.364H3.706a.364.364 0 01-.364-.364v-1.272c0-.201.163-.364.364-.364h1.272zm3.364.364A.364.364 0 007.978 10H6.706a.364.364 0 00-.364.364v1.272c0 .201.163.364.364.364h1.272a.364.364 0 00.364-.364v-1.272zM10.978 10c.201 0 .364.163.364.364v1.272a.364.364 0 01-.364.364H9.707a.364.364 0 01-.365-.364v-1.272c0-.201.163-.364.365-.364h1.271z" fill="#C1C1C1"/><path d="M2.951 3.72h.864a.474.474 0 00.474-.474V.474A.475.475 0 003.815 0H2.95a.474.474 0 00-.474.474v2.772c0 .262.212.474.474.474z" fill="#C1C1C1"/><path d="M10.535 3.72h.864a.474.474 0 00.474-.474V.474A.474.474 0 0011.4 0h-.864a.474.474 0 00-.474.474v2.772c0 .262.212.474.474.474z" fill="#B3B3B3"/></symbol><symbol fill="none" id="sprite-icon_callback_green" viewBox="0 0 95 90"><title>icon_callback_green</title><path fill-rule="evenodd" clip-rule="evenodd" d="M37.5 90C58.21 90 75 73.21 75 52.5S58.21 15 37.5 15 0 31.79 0 52.5 16.79 90 37.5 90zm19.904-22.631c.096.223.096.447.096.67 0 1.151-.511 3.389-.99 4.443-.672 1.566-2.462 2.59-3.9 3.388-1.885 1.023-3.803 1.63-5.944 1.63-2.523 0-4.838-.875-7.142-1.745-.41-.155-.821-.31-1.232-.46-1.95-.703-3.835-1.566-5.593-2.653-5.433-3.356-11.985-9.908-15.34-15.34-1.087-1.759-1.95-3.644-2.654-5.594-.15-.41-.304-.82-.46-1.231-.87-2.304-1.745-4.62-1.745-7.142 0-2.142.607-4.06 1.63-5.945.8-1.438 1.822-3.228 3.388-3.9 1.055-.479 3.292-.99 4.442-.99.224 0 .448 0 .672.096.603.201 1.233 1.489 1.586 2.21.04.081.075.155.108.219.34.607.678 1.218 1.015 1.829.675 1.221 1.35 2.443 2.053 3.636.127.207.283.427.445.655.485.685 1.025 1.446 1.025 2.19 0 1.004-1.536 2.246-3.025 3.45-1.4 1.133-2.76 2.233-2.76 3.07 0 .712.545 1.599.986 2.318.094.152.182.296.26.43 3.229 5.817 7.256 9.844 13.072 13.072.134.078.279.166.43.26.72.442 1.606.986 2.319.986.837 0 1.936-1.36 3.069-2.76 1.204-1.489 2.446-3.025 3.45-3.025.744 0 1.505.54 2.19 1.026.228.161.448.317.655.445 1.193.703 2.415 1.377 3.637 2.052.61.337 1.221.675 1.828 1.016l.219.107c.722.353 2.01.983 2.21 1.587z" fill="#48BF5B"/><circle cx="67.5" cy="27.5" r="27.5" fill="#fff"/><path d="M67.5 1C82.13 1 94 12.87 94 27.5S82.13 54 67.5 54 41 42.13 41 27.5 52.87 1 67.5 1z" stroke="#F44D4D" stroke-width="2"/><path d="M64.905 33.223c.452 0 .808.143 1.07.428.262.275.393.641.393 1.1V37.5H52.5v-1.528c0-.295.054-.61.162-.947.109-.336.298-.641.57-.916l5.687-6.461a20.46 20.46 0 001.273-1.574c.361-.499.66-.987.894-1.466a7.5 7.5 0 00.528-1.451 6.586 6.586 0 00.176-1.543c0-.886-.19-1.563-.569-2.032-.37-.478-.938-.717-1.706-.717-.623 0-1.151.188-1.584.565a2.841 2.841 0 00-.88 1.375c-.19.56-.439.931-.746 1.115-.307.183-.745.224-1.313.122l-2.221-.443c.144-1.11.42-2.078.826-2.902.415-.825.925-1.513 1.53-2.063a5.973 5.973 0 012.1-1.222A7.614 7.614 0 0159.758 15c.975 0 1.85.163 2.627.489a5.702 5.702 0 012.005 1.329c.55.57.97 1.252 1.26 2.047.297.784.446 1.65.446 2.596 0 .815-.104 1.569-.311 2.261a9.363 9.363 0 01-.827 1.986 14.086 14.086 0 01-1.232 1.818c-.46.58-.952 1.17-1.476 1.771l-3.86 4.46c.497-.172.989-.305 1.476-.396a7.36 7.36 0 011.355-.138h3.683zm11.907-4.369V23.05c0-.357.009-.738.027-1.146.027-.417.063-.85.108-1.298l-5.214 8.248h5.079zm5.688 0v2.658a.924.924 0 01-.217.611c-.135.173-.334.26-.596.26h-1.219V37.5h-3.656v-5.117h-7.936c-.262 0-.502-.092-.718-.275a1.202 1.202 0 01-.393-.687l-.433-2.337 9.128-13.84h4.008v13.61H82.5z" fill="#F44D4D"/></symbol><symbol fill="none" id="sprite-icon_callback_white" viewBox="0 0 38 36"><title>icon_callback_white</title><path fill-rule="evenodd" clip-rule="evenodd" d="M15 36c8.284 0 15-6.716 15-15 0-8.284-6.716-15-15-15C6.716 6 0 12.716 0 21c0 8.284 6.716 15 15 15zm7.962-9.053c.038.09.038.18.038.269 0 .46-.204 1.355-.396 1.777-.269.626-.985 1.035-1.56 1.355-.754.41-1.521.652-2.378.652-1.009 0-1.935-.35-2.857-.698a43.977 43.977 0 00-.492-.184 11.952 11.952 0 01-2.238-1.061c-2.173-1.342-4.793-3.963-6.136-6.136a11.95 11.95 0 01-1.06-2.238c-.06-.164-.123-.328-.185-.492C5.35 19.269 5 18.343 5 17.334c0-.857.243-1.624.652-2.378.32-.575.729-1.291 1.355-1.56C7.43 13.204 8.324 13 8.784 13c.09 0 .18 0 .269.038.241.08.493.596.634.885l.043.087c.136.243.271.487.406.732.27.488.54.977.821 1.454.051.083.114.17.178.262.194.274.41.578.41.876 0 .402-.614.898-1.21 1.38-.56.453-1.103.893-1.103 1.228 0 .285.217.64.394.927l.104.172c1.291 2.327 2.902 3.938 5.229 5.229l.172.104c.288.177.642.395.927.395.335 0 .775-.544 1.228-1.105.482-.595.978-1.21 1.38-1.21.298 0 .602.216.876.41.091.065.179.127.262.179.477.28.966.55 1.455.82.244.136.488.27.731.407l.087.043c.29.141.804.393.885.634z" fill="#fff"/><circle cx="27" cy="11" r="11" fill="#fff"/><path d="M27 1c5.52 0 10 4.48 10 10s-4.48 10-10 10-10-4.48-10-10S21.48 1 27 1z" stroke="#F44D4D" stroke-width="2"/><path d="M25.962 13.29c.18 0 .323.056.428.17.105.11.157.257.157.44V15H21v-.611c0-.118.022-.244.065-.379a.924.924 0 01.227-.366l2.276-2.585c.195-.22.364-.43.509-.63.144-.199.264-.394.357-.586.094-.195.165-.389.212-.58.047-.196.07-.401.07-.617 0-.355-.076-.626-.227-.813-.148-.191-.376-.287-.683-.287-.25 0-.46.075-.634.226-.17.147-.287.33-.352.55-.076.224-.175.373-.298.446-.122.073-.298.09-.525.049l-.889-.177c.058-.444.168-.831.33-1.161a2.82 2.82 0 01.613-.825 2.39 2.39 0 01.84-.489c.314-.11.652-.165 1.013-.165.39 0 .74.065 1.05.196.315.126.582.303.802.531.22.228.389.501.504.819.12.313.179.66.179 1.039 0 .325-.042.627-.125.904-.08.277-.19.542-.33.794a5.63 5.63 0 01-.493.727 20.11 20.11 0 01-.59.709l-1.544 1.784a4.01 4.01 0 01.59-.159 2.92 2.92 0 01.542-.055h1.473zm4.763-1.748V9.22c0-.143.003-.295.01-.458.011-.167.026-.34.044-.52l-2.086 3.3h2.032zm2.275 0v1.063a.37.37 0 01-.087.244c-.054.07-.133.104-.238.104h-.488V15h-1.462v-2.047H27.55a.434.434 0 01-.287-.11.48.48 0 01-.157-.275l-.173-.935 3.65-5.535h1.604v5.444H33z" fill="#F44D4D"/></symbol><symbol fill="none" id="sprite-icon_camera" viewBox="0 0 55 49"><title>icon_camera</title><path d="M51.563 21.063L41.25 27.938c0-2.087-.949-3.933-2.417-5.195 3.495-2.105 5.855-5.898 5.855-10.274C44.688 5.824 39.3.438 32.656.438s-12.031 5.386-12.031 12.03c0 3.371 1.394 6.41 3.628 8.595H17.95c1.646-1.828 2.676-4.222 2.676-6.875 0-5.696-4.617-10.313-10.313-10.313C4.617 3.875 0 8.492 0 14.188c0 3.107 1.404 5.86 3.578 7.751C1.456 23.11 0 25.342 0 27.937v13.75a6.875 6.875 0 006.875 6.876h27.5a6.875 6.875 0 006.875-6.876V39.97l10.313 8.593A3.436 3.436 0 0055 45.126V24.5c0-1.9-1.538-3.438-3.438-3.438zM3.437 14.188a6.875 6.875 0 1113.751 0 6.875 6.875 0 01-13.75 0zm34.376 27.5a3.438 3.438 0 01-3.438 3.437h-27.5a3.437 3.437 0 01-3.438-3.438v-13.75A3.437 3.437 0 016.875 24.5h27.5c1.9 0 3.438 1.538 3.438 3.438v13.75zM32.656 21.08a8.613 8.613 0 110-17.225 8.613 8.613 0 010 17.225zm18.907 24.044L41.25 36.531v-5.156L51.563 24.5v20.625z" fill="#18B9BB"/></symbol><symbol fill="none" id="sprite-icon_chat" viewBox="0 0 31 31"><title>icon_chat</title><path fill-rule="evenodd" clip-rule="evenodd" d="M.003 15.46C.003 6.907 6.94 0 15.487 0c2.742 0 5.42.71 7.774 2.098 7.42 4.292 9.936 13.781 5.646 21.172s-13.742 9.91-21.162 5.616l-6.064 2.033a1.156 1.156 0 01-.807 0 1.298 1.298 0 01-.806-1.646L2.1 23.238C.713 20.882.003 18.17.003 15.46zm18 .532a2 2 0 11-3.998-.001 2 2 0 013.998 0zm-9 1.999a2 2 0 10.002-4 2 2 0 00-.001 4zm16-2a2 2 0 11-3.998 0 2 2 0 013.998 0z" fill="#B3B3B3"/></symbol><symbol fill="none" id="sprite-icon_clock" viewBox="0 0 18 18"><title>icon_clock</title><path d="M9 0C4.024 0 0 4.024 0 9s4.024 9 9 9 9-4.024 9-9-4.061-9-9-9zm4.5 12.402a1.28 1.28 0 01-1.024.513c-.257 0-.55-.073-.769-.256l-3.475-2.635c-.366-.292-.55-.695-.512-1.134V4.28C7.72 3.585 8.305 3 9 3c.695 0 1.28.585 1.28 1.28v4.061l3 2.232a1.32 1.32 0 01.22 1.83z" fill="#C1C1C1"/></symbol><symbol fill="none" id="sprite-icon_creditcard" viewBox="0 0 43 30"><title>icon_creditcard</title><path fill-rule="evenodd" clip-rule="evenodd" d="M4.462 3.05c-.784 0-1.412.62-1.412 1.47v20.96c0 .85.628 1.47 1.412 1.47h33.175c.784 0 1.413-.62 1.413-1.47V4.52c0-.85-.63-1.47-1.413-1.47H4.462zM.05 4.52C.05 2.02 1.988 0 4.462 0h33.175c2.474 0 4.413 2.02 4.413 4.52v20.96c0 2.5-1.939 4.52-4.413 4.52H4.462C1.988 30 .05 27.98.05 25.48V4.52z" fill="#18B9BB"/><path fill-rule="evenodd" clip-rule="evenodd" d="M40.05 10h-39V7h39v3zm-34 5.5c0-.828.716-1.5 1.6-1.5h9.799c.884 0 1.6.672 1.6 1.5s-.716 1.5-1.6 1.5H7.65c-.884 0-1.6-.672-1.6-1.5zm0 5c0-.828.716-1.5 1.6-1.5h9.799c.884 0 1.6.672 1.6 1.5s-.716 1.5-1.6 1.5H7.65c-.884 0-1.6-.672-1.6-1.5z" fill="#18B9BB"/></symbol><symbol fill="none" id="sprite-icon_facebook" viewBox="0 0 21 22"><title>icon_facebook</title><path d="M18.75.5H2.25A2.25 2.25 0 000 2.75v16.5a2.22 2.22 0 002.25 2.25h6.422v-7.125H5.719V11h2.953V8.469c0-2.906 1.734-4.547 4.36-4.547 1.312 0 2.624.234 2.624.234v2.86h-1.453c-1.453 0-1.922.89-1.922 1.828V11h3.235L15 14.375h-2.719V21.5h6.469A2.25 2.25 0 0021 19.25V2.75C21 1.531 19.969.5 18.75.5z" fill="#fff"/></symbol><symbol fill="none" id="sprite-icon_group" viewBox="0 0 28 15"><title>icon_group</title><path d="M9.835 7.833a4.784 4.784 0 00-1.421-1.389.217.217 0 00-.256 0c-.71.5-1.591.806-2.53.806A4.408 4.408 0 013.1 6.444a.217.217 0 00-.256 0c-1.676 1.056-2.5 3.112-2.5 5.5 0 1 4.035 1.39 7.105 1.167.142-2.25.994-4.111 2.387-5.278zM5.629 6.167c1.742 0 3.154-1.38 3.154-3.084C8.783 1.38 7.371 0 5.63 0 3.886 0 2.474 1.38 2.474 3.083c0 1.703 1.412 3.084 3.155 3.084zm19.212.277a.217.217 0 00-.256 0c-.71.5-1.591.806-2.53.806a4.407 4.407 0 01-2.529-.806.217.217 0 00-.255 0c-.569.362-1.024.834-1.421 1.39C19.242 9 20.095 10.86 20.237 13.11c3.098.222 7.105-.139 7.105-1.167 0-2.388-.824-4.444-2.5-5.5zm-2.785-.277c1.742 0 3.155-1.38 3.155-3.084C25.21 1.38 23.798 0 22.056 0c-1.742 0-3.155 1.38-3.155 3.083 0 1.703 1.413 3.084 3.155 3.084zm-5.428 2.111a.217.217 0 00-.256 0c-.71.5-1.592.805-2.53.805a4.408 4.408 0 01-2.53-.805.217.217 0 00-.255 0c-1.677 1.055-2.501 3.11-2.501 5.5 0 1.639 10.601 1.639 10.601 0-.029-2.361-.853-4.445-2.53-5.5zM13.842 8c1.742 0 3.155-1.38 3.155-3.083 0-1.703-1.412-3.084-3.155-3.084-1.742 0-3.155 1.38-3.155 3.084C10.688 6.62 12.1 8 13.842 8z" fill="#B3B3B3"/></symbol><symbol fill="none" id="sprite-icon_headphone" viewBox="0 0 45 42"><title>icon_headphone</title><path d="M45 24.98c0-4.076-2.934-7.48-6.815-8.103v-1.151C38.185 7.048 31.228 0 22.662 0c-8.566 0-15.57 7.048-15.57 15.726v1.103c-3.975.527-7.051 3.98-7.051 8.15 0 4.555 3.644 8.247 8.14 8.247h2.082c1.704 0 3.029-1.39 3.029-3.069V19.85a3.092 3.092 0 00-2.698-3.068v-1.055c0-6.712 5.395-12.178 12.02-12.178 6.627 0 12.022 5.466 12.022 12.178v1.007c-1.657.048-2.935 1.39-2.935 3.068V30.11c0 1.294.805 2.445 1.988 2.876a8.933 8.933 0 01-7.051 4.411 1.94 1.94 0 00-1.893-1.534h-4.26c-1.04 0-1.94.863-1.94 1.966v2.205c0 1.055.852 1.966 1.94 1.966h4.26c.946 0 1.75-.671 1.893-1.63 4.59-.24 8.47-3.164 10.222-7.192 4.496 0 8.14-3.692 8.14-8.198zM9.79 29.63H8.18c-2.555 0-4.59-2.11-4.59-4.65 0-2.542 2.082-4.651 4.59-4.651h1.61v9.301zm27.07 0h-1.61v-9.3h1.61c2.556 0 4.59 2.11 4.59 4.65 0 2.541-2.034 4.651-4.59 4.651z" fill="#18B9BB"/></symbol><symbol fill="none" id="sprite-icon_instagram" viewBox="0 0 21 21"><title>icon_instagram</title><path d="M10.523 5.086c-3 0-5.39 2.437-5.39 5.39 0 3 2.39 5.391 5.39 5.391a5.39 5.39 0 005.391-5.39c0-2.954-2.437-5.391-5.39-5.391zm0 8.906a3.51 3.51 0 01-3.515-3.515c0-1.922 1.547-3.47 3.515-3.47a3.461 3.461 0 013.47 3.47c0 1.968-1.548 3.515-3.47 3.515zm6.844-9.094a1.26 1.26 0 00-1.265-1.265 1.26 1.26 0 00-1.266 1.265 1.26 1.26 0 001.266 1.266 1.26 1.26 0 001.265-1.266zm3.563 1.266c-.094-1.687-.47-3.187-1.688-4.406C18.023.539 16.523.164 14.836.07c-1.734-.093-6.938-.093-8.672 0-1.687.094-3.14.47-4.406 1.688C.539 2.977.164 4.477.07 6.164c-.093 1.734-.093 6.938 0 8.672.094 1.687.47 3.14 1.688 4.406 1.265 1.219 2.719 1.594 4.406 1.688 1.734.093 6.938.093 8.672 0 1.687-.094 3.187-.47 4.406-1.688 1.219-1.265 1.594-2.719 1.688-4.406.093-1.734.093-6.938 0-8.672zm-2.25 10.5c-.328.938-1.078 1.64-1.97 2.016-1.405.562-4.687.422-6.187.422-1.546 0-4.828.14-6.187-.422a3.554 3.554 0 01-2.016-2.016c-.562-1.36-.422-4.64-.422-6.187 0-1.5-.14-4.782.422-6.188A3.616 3.616 0 014.336 2.32c1.36-.562 4.64-.422 6.187-.422 1.5 0 4.782-.14 6.188.422.89.328 1.594 1.078 1.969 1.97.562 1.405.422 4.687.422 6.187 0 1.546.14 4.828-.422 6.187z" fill="#fff"/></symbol><symbol fill="none" id="sprite-icon_letter_gray" viewBox="0 0 31 22"><title>icon_letter_gray</title><path fill-rule="evenodd" clip-rule="evenodd" d="M27.679 0H3.32c-.784 0-1.492.249-2.05.675L15.5 10.774 29.73.674A3.359 3.359 0 0027.68 0zm3.183 2.324L16.079 12.816l-.579.41-.579-.41L.138 2.323C.048 2.631 0 2.958 0 3.3v15.4C0 20.57 1.44 22 3.321 22H27.68c1.88 0 3.32-1.43 3.32-3.3V3.3c0-.342-.048-.67-.138-.976z" fill="#B3B3B3"/></symbol><symbol fill="none" id="sprite-icon_letter" viewBox="0 0 31 22"><title>icon_letter</title><path fill-rule="evenodd" clip-rule="evenodd" d="M27.679 0H3.32c-.784 0-1.492.249-2.05.675L15.5 10.774 29.73.674A3.359 3.359 0 0027.68 0zm3.183 2.324L16.079 12.816l-.579.41-.579-.41L.138 2.323C.048 2.631 0 2.958 0 3.3v15.4C0 20.57 1.44 22 3.321 22H27.68c1.88 0 3.32-1.43 3.32-3.3V3.3c0-.342-.048-.67-.138-.976z" fill="#fff"/></symbol><symbol fill="none" id="sprite-icon_logo" viewBox="0 0 88 51"><title>icon_logo</title><path d="M3.971 11.64c.08-.225.32-3.613 4.21-5.389-.017-.103 1.205-2.531 4.22-2.68-.017-.104.976-1.741 4.747-1.882.096-.121 1.854-1.635 3.902-.806.2-.13 1.908-1.204 3.517-.433.216-.027 1.441-.607 2.382.034.2-.13 1.16-.251 1.74.113.321-.043 1.09.087 1.82.753.225.08 2.03-.251 2.936 1.916.52-.173 2.558-.312 3.234 1.662.347.173 1.767.32 2.286 2.751.424-.052 2.259.806 2.11 3.094.563.148 1.274.712 1.248 2.224.45.165 1.846.958 1.107 2.892.347.173 1.301 2.655-1.098 3.376.381.494 3.691 3.665-.754 7.128.07.538-.164 5.75-5.924 4.615-.217.027-3.648 2.453-6.716-1.775-.216.026-2.804-.85-3.331-2.514-.468.598-2.435 3.973-7.507 3.19-.668-.138-4.123-1.01-5.424-5.397 0 0-2.795 3.701-7.691 1.697-.338-.173-5.978-2.945-3.06-9.142-.027-.21-.713-3.156 2.049-5.432l-.003.005z" stroke="#fff" stroke-width=".176" stroke-miterlimit="10" stroke-linecap="round" stroke-linejoin="round"/><path d="M14.089 27.55l3.094-.695-.791-3.165 4.131 2.374 2.62 2.962M28.689.606v3.181L26.404 7.63l-5.978-1.98-1.933-.95L28.688.606zM15.662 1.844l.102 1.028-.102-1.028zM8.67 5.449l1.319.284 1.107-1.934-2.426 1.65zm.704-.718l.62.993-5.511 12.921.07 6.33L9.373 4.73zm-8.24 14.873l3.349-.959L9.3 26.61l-8.166-7.006zm.553-2.049l2.796 1.073 7.586-1.494 4.483 6.504-3.428 2.057-11.437-8.14zM9.3 26.593l-4.747-1.635L1.248 21.8 9.3 26.59zm-7.164-2.857l2.417 1.222-.21.854-2.207-2.076zM20.34.671L18.47 4.68l-2.726-1.83-5.767 2.858-1.82.526L20.342.67zm.65.192l-2.557 3.815-.176 3.912-8.316-2.884 2.075 11.428 4.659-6.242 6.592-.263-5.01-2.057-1.582 2.32 1.846 10.285 4.043-7.472-5.89-2.813L9.943 5.69 5.248 8.44 20.992.863zm.783-.422L20.359 5.61l2.9 5.019-.703 3.076L28.71 15.2l1.583-7.876-3.956.263-3.076 3.042 5.45 4.57-2.374-7.612L21.774.441zm8.667.87l.554 2.365 3.604.307-4.158-2.672zm2.637 1.336l-2.083 1.029 2.382-.445-.299-.584zm3.261 1.665l-1.74-.326-4.307 3.34 6.944 10.636.703 4.044-2.637 1.758L36.34 4.312zm-6.047 3.014l5.098 4.712-1.072 1.336-4.026-6.048zM18.847.716l-3.165 2.127 2.55 5.74 2.11-2.962 8.262-1.863 2.373-.07-.703 3.647-1.67-3.577L24.666.373l-5.82.343zM41.63 11.097l-6.223.967 1.846 5.89 5.45 3.692-1.073-10.549zm1.291 7.885l-.746-5.423-6.768-1.495-.792-8.052 6.347 5.784 1.96 9.186zm.643-4.483l-1.389-.94.542-.333.847 1.273zm-1.389-.94l-4.922 4.395-1.934 5.801 6.856-10.196zm-.132 12.403l.661-4.316-.66 4.316zm1.725-2.77l-1.064-1.546 1.064 1.547zm-.377-2.36l-.687.814.687-.814zm-.49-.813l-.197 1.627-4.746.351 2.61 7.595 2.333-9.573zm-2.632 9.93l-4.949-6.197 4.95 6.197zm-3.542 1.195l-1.407-7.392-2.9-.44-1.846.616 6.153 7.216zm0 0l-4.307-7.832-1.583 1.67 5.89 6.162zm-1.75.15l-4.14-6.312 4.14 6.312zm1.75-.15l-5.89-6.162 5.89 6.162zm-6.763-.703l.873-5.459-2.549-.79.44-8.967 8.526 2.725-4.834 5.362-3.692-8.087 5.608-1.828-4.372 17.044zm-1.412-1.31l-.26-4.948 2.286-.264-2.026 5.212zm-15.73-3.982l3.665-1.494 2.022-2.461-6.505-4.044-2.769 9.494 3.587-1.495zm5.643-3.92l2.11 4.835 7.647-1.846-9.757-2.989 10.197-5.977 2.11 9.757-12.307-3.78zm2.9 8.57l-1.889-1.626 1.89 1.626zm-2.97.185l-1.204-3.13 3.34-.79-1.846 3.946-.29-.026zm-2.778-1.055l1.565-2.074 2.285 1.318-3.85.756z" stroke="#fff" stroke-width=".088" stroke-miterlimit="10" stroke-linecap="round" stroke-linejoin="round"/><path d="M4.49 19.55a.88.88 0 100-1.757.88.88 0 000 1.758zm7.586-1.581a.791.791 0 100-1.583.791.791 0 000 1.583zm4.483 6.504a.791.791 0 100-1.582.791.791 0 000 1.582zm4.131 2.462a.879.879 0 100-1.758.879.879 0 000 1.758zm-2.11-4.923a.791.791 0 100-1.582.791.791 0 000 1.582zm-1.845-10.285a.791.791 0 100-1.582.791.791 0 000 1.582zm5.889 2.813a.791.791 0 100-1.582.791.791 0 000 1.582zM9.966 6.541a.791.791 0 100-1.582.791.791 0 000 1.582zm8.351 2.866a.791.791 0 100-1.582.791.791 0 000 1.582zm10.46 6.716a.879.879 0 100-1.758.879.879 0 000 1.758zM28.338 25a.791.791 0 100-1.581.791.791 0 000 1.582zm4.131-.878a.791.791 0 100-1.582.791.791 0 000 1.582zm5.538-1.319a.791.791 0 100-1.582.791.791 0 000 1.582zm-.703-4.043a.791.791 0 100-1.583.791.791 0 000 1.583zm-1.846-5.89a.791.791 0 100-1.582.791.791 0 000 1.582zM30.36 8.159a.791.791 0 100-1.582.791.791 0 000 1.582zm-3.956.264a.791.791 0 100-1.583.791.791 0 000 1.583zm-5.978-1.978a.791.791 0 100-1.583.791.791 0 000 1.583zm8.264-1.864a.791.791 0 100-1.582.791.791 0 000 1.582zm-12.922-.914a.791.791 0 100-1.582.791.791 0 000 1.582zm2.724 1.626a.589.589 0 100-1.178.589.589 0 000 1.178zm12.571-.984a.589.589 0 100-1.178.589.589 0 000 1.178zm3.603.421a.703.703 0 100-1.406.703.703 0 000 1.407z" fill="#fff" stroke="#fff" stroke-width=".088" stroke-miterlimit="10" stroke-linecap="round" stroke-linejoin="round"/><path d="M7.04 39.63l2.944-7.427h1.96L7.418 42.864c-.305.68-.589 1.163-.853 1.45a2.73 2.73 0 01-.931.65c-.352.147-.794.22-1.327.22-.463 0-.76-.026-.888-.078l.053-1.337.8.036c.615 0 1.072-.296 1.37-.888l.22-.457.334-.782-4.36-9.475h1.89L7.04 39.63zM20.584 45h-1.626v-4.06H14.59V45h-1.635v-9.51h1.635v4.122h4.368V35.49h1.626V45zm8.771-9.51h1.626V45h-1.626v-6.935L24.97 45h-1.626v-9.51h1.626v6.944l4.386-6.944zm7.199 5.458h-1.187V45h-1.635v-9.51h1.635v4.026h1.064l3.199-4.026h1.969l-3.762 4.57L41.915 45H39.85l-3.296-4.052zm10.142-.72h-4.289V38.9h4.29v1.328zm6.24-.598l2.945-7.427h1.96l-4.526 10.661c-.305.68-.59 1.163-.853 1.45a2.73 2.73 0 01-.932.65c-.351.147-.794.22-1.327.22-.463 0-.759-.026-.888-.078l.053-1.337.8.036c.615 0 1.072-.296 1.371-.888l.22-.457.334-.782-4.36-9.475h1.89l3.314 7.427zm11.25 3.217l3.235-7.357h2.03V45h-1.626v-6.917L64.75 45h-1.125l-3.138-7.066V45H58.86v-9.51h2.11l3.216 7.357z" fill="#FBF9F9"/></symbol><symbol fill="none" id="sprite-icon_lvl_hard" viewBox="0 0 17 13"><title>icon_lvl_hard</title><path fill-rule="evenodd" clip-rule="evenodd" d="M.342 0h4v13h-4V0zm6 0h4v13h-4V0zm10 0h-4v13h4V0z" fill="#F44D4D"/></symbol><symbol fill="none" id="sprite-icon_manwithflag" viewBox="0 0 55 60"><title>icon_manwithflag</title><path d="M38.757 29.955c-1.89 0-3.691-.728-5.131-2.185-3.15-3.187-3.961-8.559-3.961-11.29 0-.82.09-1.548.27-2.367.18-.82 1.08-1.366 1.8-1.093.81.182 1.35 1.002 1.08 1.821-.18.546-.18 1.093-.18 1.639 0 3.005 1.08 7.102 3.061 9.105.9.91 1.8 1.274 2.97 1.274 4.592 0 6.122-7.192 6.122-10.38 0-.545-.09-1.092-.18-1.638-.18-.82.27-1.639 1.08-1.821.81-.182 1.62.273 1.8 1.093.18.82.27 1.639.27 2.367.18 5.554-2.7 13.384-9.001 13.475z" fill="#18B9BB"/><path d="M18.593 35.236h-.36c-.36.091-.72.273-.99.637l-.9 1.275 5.22 3.733.36.273c.63.455 1.44.364 1.98-.182.631-.728 1.261-1.548 1.981-2.458 1.8-2.367 3.781-5.008 6.211-5.19 3.961-.364 5.041-4.006 5.311-5.19.18-.82-.27-1.639-1.08-1.912-.81-.273-1.62.273-1.89 1.002-.63 2.276-1.53 2.822-2.7 2.913-3.781.273-6.302 3.642-8.372 6.465-.27.455-.63.82-.9 1.184l-2.34-1.73-.45-.274-1.081-.546z" fill="#18B9BB"/><path d="M22.554 49.804c-1.62 0-2.97-.637-4.051-1.82l-4.5-5.464c-.541-.637-.451-1.639.18-2.185.63-.546 1.62-.455 2.16.182l4.5 5.372c.45.546.99.728 1.71.728s1.26-.273 1.62-.82l5.582-6.737c.54-.637 1.53-.728 2.16-.182.63.546.72 1.548.18 2.185l-5.58 6.738c-.99 1.366-2.431 2.003-3.961 2.003zm30.786 0c-.81 0-1.53-.728-1.53-1.548v-10.38c0-2.458-1.981-4.37-4.322-4.37-.81 0-1.53-.728-1.53-1.548 0-.82.72-1.547 1.53-1.547 4.051 0 7.382 3.368 7.382 7.466v10.38c0 .91-.72 1.547-1.53 1.547z" fill="#18B9BB"/><path d="M47.488 33.506c-5.4 0-6.391-1.912-7.291-5.008l-.09-.364c-.27-.82.18-1.639.99-1.912.81-.273 1.62.182 1.89 1.002l.09.364c.72 2.367.81 2.822 4.321 2.822.81 0 1.53.729 1.53 1.548.09.82-.63 1.548-1.44 1.548zm2.611-14.204c-.63 0-1.17-.364-1.35-.91-.36-.82 0-1.639.81-2.003 1.71-.728 2.52-1.639 2.52-2.094 0-1.366-4.68-4.006-13.233-4.006-8.551 0-13.232 2.64-13.232 4.006 0 .546.81 1.366 2.52 2.094.81.364 1.17 1.275.81 2.003-.36.82-1.26 1.184-1.98.82-3.78-1.64-4.32-3.825-4.32-4.917 0-4.644 8.191-7.102 16.293-7.102 8.101 0 16.293 2.458 16.293 7.102 0 1.183-.54 3.278-4.321 4.916-.45 0-.63.091-.81.091z" fill="#18B9BB"/><path d="M47.038 11.108c-.81 0-1.44-.637-1.53-1.457-.09-3.642-3.06-6.555-6.751-6.555-3.691 0-6.661 2.913-6.752 6.555 0 .82-.72 1.457-1.53 1.457h-.09c-.81 0-1.53-.728-1.44-1.548.27-5.372 4.5-9.56 9.812-9.56 5.31 0 9.631 4.188 9.812 9.56 0 .82-.63 1.548-1.53 1.548.09 0 0 0 0 0zM16.613 34.144c-.81 0-1.53-.729-1.53-1.548V13.202c0-.82.72-1.548 1.53-1.548s1.53.729 1.53 1.548v19.394c0 .91-.72 1.548-1.53 1.548z" fill="#18B9BB"/><path d="M1.58 21.032c-.63 0-1.17-.364-1.44-.91-.36-.82.09-1.639.81-2.003l15.033-6.283c.81-.364 1.62.091 1.98.82.36.82-.09 1.639-.81 2.003L2.12 20.85c-.18.091-.36.182-.54.182z" fill="#18B9BB"/><path d="M16.613 27.315c-.18 0-.36 0-.54-.091L.95 20.85c-.81-.364-1.17-1.183-.81-2.003.36-.82 1.17-1.183 1.98-.82l15.033 6.283c.81.364 1.17 1.184.81 2.003-.18.638-.72 1.002-1.35 1.002zm31.505 30.137V40.244c0-.729-.54-1.457-1.26-1.548-.99-.182-1.8.546-1.8 1.548v17.3c0 .819.72 1.547 1.53 1.547.81-.091 1.53-.82 1.53-1.639zm-15.663 0V40.244c0-.729-.54-1.457-1.26-1.64-.99-.181-1.8.547-1.8 1.549v17.3c0 .819.72 1.547 1.53 1.547.9 0 1.53-.728 1.53-1.548zM14.542 43.066l1.89-2.276c-.27-.364-.45-.728-.45-1.184 0-.819.63-1.365 1.35-1.365.36 0 .63.09.9.273l1.981-2.367c-.81-.638-1.8-1.093-2.88-1.093-2.43 0-4.411 2.003-4.411 4.461 0 1.457.63 2.64 1.62 3.551z" fill="#18B9BB"/></symbol><symbol fill="none" id="sprite-icon_profileicon" viewBox="0 0 12 15"><title>icon_profileicon</title><path d="M11.429 11.777c0-2.348-.58-5.063-2.92-5.063a3.987 3.987 0 01-5.59 0C.58 6.714 0 9.43 0 11.777c0 1.303.857 2.366 1.902 2.366h7.625c1.044 0 1.902-1.063 1.902-2.366zm-2.286-7.92a3.43 3.43 0 10-6.86.002 3.43 3.43 0 006.86-.002z" fill="#18B9BB"/></symbol><symbol fill="none" id="sprite-icon_ratingstar" viewBox="0 0 12 12"><title>icon_ratingstar</title><path d="M0 0h12v12H0V0z" fill="#4FB37E"/><path d="M6.008 8.115l1.821-.481.768 2.363-2.59-1.882zm4.2-3.056H6.986l-.994-3.057L5 5.06H1.777L4.38 6.956l-.993 3.056L5.992 8.13l1.611-1.174 2.605-1.897z" fill="#fff"/></symbol><symbol fill="none" id="sprite-icon_shield" viewBox="0 0 37 44"><title>icon_shield</title><path d="M1.444 7.972a29.892 29.892 0 008-2.61c2.752-1.358 5.248-3.074 7.523-4.968.624-.536 1.541-.5 2.165.036 2.275 1.894 4.77 3.61 7.523 4.932 2.459 1.216 5.174 2.145 8.037 2.61.77.143 1.358.822 1.358 1.572 0 8.186-1.101 14.548-3.817 19.838-2.716 5.362-7.01 9.508-13.321 13.404a1.727 1.727 0 01-1.761-.035c-6.312-3.86-10.57-8.043-13.285-13.369C1.15 24.128.05 17.765.05 9.58c0-.822.623-1.501 1.394-1.608zM12.05 21.948c-.624-.608-.624-1.609 0-2.252.623-.608 1.65-.608 2.311 0l3.156 3.074 6.019-5.827c.624-.607 1.651-.607 2.312-.035a1.589 1.589 0 010 2.251l-7.193 6.97c-.624.608-1.688.608-2.312 0l-4.293-4.181zM10.912 8.186c-2.385 1.144-4.917 2.073-7.56 2.68.11 7.078 1.138 12.619 3.45 17.122 2.312 4.54 5.945 8.186 11.266 11.545 5.321-3.395 8.954-7.005 11.266-11.545 2.349-4.503 3.34-10.044 3.486-17.121-2.679-.572-5.21-1.501-7.596-2.681a37.308 37.308 0 01-7.12-4.54c-2.238 1.752-4.623 3.289-7.192 4.54z" fill="#18B9BB"/></symbol><symbol fill="none" id="sprite-icon_signin" viewBox="0 0 30 30"><title>icon_signin</title><path fill-rule="evenodd" clip-rule="evenodd" d="M24.148 26.889A14.935 14.935 0 0115 30c-3.443 0-6.616-1.16-9.148-3.111A10.99 10.99 0 0115 22a10.99 10.99 0 019.148 4.889zm1.51-1.334A12.985 12.985 0 0015 20c-4.41 0-8.308 2.196-10.658 5.555A14.952 14.952 0 010 15C0 6.716 6.716 0 15 0c8.284 0 15 6.716 15 15 0 4.116-1.658 7.845-4.342 10.555zM15 16a5 5 0 100-10 5 5 0 000 10zm0 2a7 7 0 100-14 7 7 0 000 14z" fill="#fff"/></symbol><symbol fill="none" id="sprite-icon_star" viewBox="0 0 42 40"><title>icon_star</title><path fill-rule="evenodd" clip-rule="evenodd" d="M21.05.5a1.5 1.5 0 011.345.836l5.528 11.203 12.363 1.796a1.5 1.5 0 01.832 2.559l-8.946 8.72 2.112 12.313a1.5 1.5 0 01-2.177 1.581L21.05 33.695 9.992 39.508a1.5 1.5 0 01-2.177-1.581l2.112-12.313-8.946-8.72a1.5 1.5 0 01.832-2.559l12.362-1.796 5.53-11.203A1.5 1.5 0 0121.05.5zm0 4.89l-4.533 9.184a1.5 1.5 0 01-1.13.82L5.252 16.867l7.334 7.149a1.5 1.5 0 01.431 1.328l-1.731 10.094 9.066-4.766a1.5 1.5 0 011.395 0l9.066 4.766-1.731-10.094a1.5 1.5 0 01.431-1.328l7.334-7.149-10.135-1.473a1.5 1.5 0 01-1.13-.82L21.05 5.389z" fill="#18B9BB"/></symbol><symbol fill="none" id="sprite-icon_twoperson" viewBox="0 0 42 66"><title>icon_twoperson</title><path d="M41.05 18.48c0-4.356-3.46-7.92-7.688-7.92a6.923 6.923 0 001.281-3.96c0-3.696-2.818-6.6-6.406-6.6-3.587 0-6.406 2.904-6.406 6.6a6.92 6.92 0 001.281 3.96c-4.228 0-7.687 3.564-7.687 7.92v4.488c-.77-.396-1.666-.528-2.563-.528-3.587 0-6.406 2.904-6.406 6.6A6.92 6.92 0 007.737 33C3.51 33 .05 36.564.05 40.92v6.6c0 2.244 1.665 3.96 3.843 3.96.513 0 .897-.132 1.282-.264V61.38c0 2.508 2.05 4.62 4.484 4.62 1.281 0 2.434-.528 3.203-1.452.769.924 1.922 1.452 3.203 1.452 2.435 0 4.485-2.112 4.485-4.62V51.216c.384.132.768.264 1.28.264 2.179 0 3.845-1.716 3.845-3.96v-4.092c1.025-.132 1.921-.66 2.562-1.32.769.924 1.922 1.452 3.203 1.452 2.435 0 4.485-2.112 4.485-4.62V28.776c.384.132.768.264 1.28.264 2.179 0 3.845-1.716 3.845-3.96v-6.6zM24.393 6.6c0-2.244 1.666-3.96 3.844-3.96s3.844 1.716 3.844 3.96c0 2.244-1.666 3.96-3.844 3.96s-3.844-1.716-3.844-3.96zM20.55 33.396c-.77-.264-1.666-.396-2.563-.396a6.923 6.923 0 001.281-3.96c.513 0 .897-.132 1.282-.264v4.62zM9.018 29.04c0-2.244 1.666-3.96 3.844-3.96 1.153 0 2.178.528 2.947 1.452.128.132.256.396.384.528v.132c.128.132.128.264.257.528.128.396.256.924.256 1.452 0 2.244-1.666 3.96-3.844 3.96s-3.844-1.848-3.844-4.092zm14.094 18.48c0 .792-.512 1.32-1.281 1.32-.769 0-1.281-.528-1.281-1.32V39.6h-2.563v21.78c0 1.056-.897 1.98-1.922 1.98s-1.922-.924-1.922-1.98V48.84h-2.562v12.54c0 1.056-.897 1.98-1.922 1.98s-1.922-.924-1.922-1.98V39.6H5.175v7.92c0 .792-.513 1.32-1.282 1.32-.768 0-1.28-.528-1.28-1.32v-6.6c0-2.904 2.305-5.28 5.124-5.28h10.25c1.153 0 2.178.396 3.075 1.056.256.264.64.528.769.792 0 0 0 .132.128.132.256.264.384.528.512.792 0 .132.129.132.129.264.128.264.256.528.256.792 0 .132 0 .132.128.264.128.396.128.792.128 1.188v6.6zm15.375-22.44c0 .792-.512 1.32-1.281 1.32-.769 0-1.281-.528-1.281-1.32v-7.92h-2.563v21.78c0 1.056-.897 1.98-1.922 1.98s-1.922-.924-1.922-1.98V26.4h-2.562v12.54c0 .924-.513 1.584-1.281 1.848v-1.056c0-.132 0-.264-.129-.396 0-.132 0-.264-.128-.264 0-.132-.128-.264-.128-.528 0-.132 0-.132-.128-.264 0-.132-.128-.396-.256-.528 0 0 0-.132-.128-.132-.128-.264-.257-.396-.257-.66-.384-.66-.896-1.32-1.537-1.848V17.16H20.42v7.92c0 .792-.512 1.32-1.28 1.32-.257 0-.513-.132-.641-.132 0-.132-.129-.132-.129-.264-.128-.264-.384-.66-.512-.924v-6.6c0-2.904 2.306-5.28 5.125-5.28h10.25c2.819 0 5.125 2.376 5.125 5.28.128 0 .128 6.6.128 6.6z" fill="#18B9BB"/></symbol><symbol class="hidden" id="sprite-sprite" viewBox="0 0 0 0"><title>sprite</title></symbol></svg>